<?xml version="1.0" standalone="no"?>
<!DOCTYPE svg PUBLIC "-//W3C//DTD SVG 20010904//EN"
 "http://www.w3.org/TR/2001/REC-SVG-20010904/DTD/svg10.dtd">
<svg version="1.0" xmlns="http://www.w3.org/2000/svg"
 width="3220.000000pt" height="3220.000000pt" viewBox="0 0 3220.000000 3220.000000"
 preserveAspectRatio="xMidYMid meet">
<metadata>
Created by potrace 1.11, written by Peter Selinger 2001-2013
</metadata>
<g transform="translate(0.000000,3220.000000) scale(0.100000,-0.100000)"
fill="#000000" stroke="none">
<path d="M17495 25489 c-344 -15 -792 -71 -1095 -135 -41 -9 -93 -20 -115 -25
-74 -15 -319 -78 -424 -108 -57 -17 -107 -28 -112 -26 -4 3 -9 2 -11 -3 -1 -4
-64 -27 -138 -50 -74 -24 -148 -49 -165 -57 -16 -7 -57 -22 -90 -33 -70 -24
-320 -126 -419 -171 -37 -17 -73 -28 -79 -24 -6 3 -7 1 -3 -5 4 -7 2 -12 -4
-12 -6 0 -42 -16 -80 -34 -39 -19 -70 -32 -70 -28 0 4 -4 2 -8 -4 -9 -14 -152
-85 -152 -76 0 4 -4 2 -8 -4 -9 -13 -162 -98 -162 -90 0 3 -9 -3 -20 -14 -11
-11 -24 -20 -30 -20 -5 0 -35 -16 -65 -35 -31 -20 -61 -33 -67 -29 -6 4 -8 3
-5 -2 3 -6 -26 -29 -65 -52 -59 -36 -73 -41 -87 -30 -13 10 -14 10 -4 -2 10
-11 4 -20 -37 -47 -27 -18 -54 -33 -59 -33 -5 0 -11 -4 -13 -8 -5 -13 -100
-75 -115 -75 -7 0 -11 -3 -8 -5 7 -7 -47 -42 -56 -36 -4 2 -11 -1 -15 -7 -5
-8 -2 -10 7 -5 8 4 3 -1 -11 -12 -13 -11 -28 -18 -32 -16 -4 3 -8 1 -8 -4 0
-5 -38 -37 -83 -70 -46 -34 -122 -90 -168 -126 -46 -37 -94 -74 -107 -84 -12
-9 -29 -23 -37 -30 -8 -7 -20 -10 -26 -6 -7 4 -9 3 -6 -4 9 -13 -82 -94 -96
-85 -5 3 -7 1 -3 -5 3 -5 -13 -25 -36 -44 -105 -83 -408 -379 -566 -553 -70
-77 -143 -157 -163 -177 -20 -21 -34 -39 -32 -42 2 -2 -7 -13 -21 -24 -15 -11
-26 -24 -26 -28 0 -5 -15 -25 -33 -44 -17 -19 -63 -77 -102 -127 -38 -51 -73
-93 -77 -93 -5 0 -8 -7 -8 -15 0 -9 -7 -18 -15 -21 -8 -4 -15 -11 -15 -18 0
-6 -13 -26 -30 -44 -16 -18 -30 -37 -30 -41 0 -5 -11 -20 -25 -35 -13 -14 -24
-29 -24 -31 -1 -11 -48 -75 -53 -70 -2 3 -5 -1 -5 -9 0 -25 -57 -96 -73 -90
-11 4 -12 2 -3 -6 8 -9 -4 -36 -49 -109 -33 -53 -69 -105 -79 -116 -10 -11
-18 -24 -19 -30 -2 -24 -105 -193 -114 -188 -5 3 -6 1 -3 -4 4 -6 -19 -57 -50
-114 -68 -126 -185 -368 -243 -503 -23 -54 -46 -106 -50 -115 -5 -9 -21 -49
-36 -88 -15 -40 -31 -73 -36 -73 -5 0 -7 -4 -3 -9 5 -9 -13 -59 -25 -71 -3 -3
-5 -9 -5 -15 0 -19 -150 -460 -158 -463 -4 -2 -5 -7 -2 -11 5 -9 -34 -153 -44
-161 -3 -3 -6 -9 -6 -15 -2 -40 -19 -104 -26 -99 -5 3 -6 -1 -3 -9 3 -8 -2
-41 -11 -73 -9 -33 -18 -71 -20 -86 -2 -14 -13 -66 -25 -115 -25 -107 -83
-452 -104 -623 -35 -286 -49 -535 -49 -880 0 -363 8 -527 47 -885 9 -78 36
-252 62 -400 15 -82 28 -161 29 -175 2 -14 5 -32 8 -40 18 -52 48 -201 41
-211 -4 -7 -3 -10 3 -6 5 3 19 -36 33 -91 12 -53 40 -155 62 -227 21 -71 37
-138 34 -148 -2 -9 0 -15 4 -12 12 7 23 -32 14 -46 -4 -7 -3 -9 3 -6 12 7 67
-159 59 -179 -3 -8 -2 -13 3 -9 11 6 54 -102 46 -115 -3 -5 -1 -10 4 -12 5 -1
30 -55 54 -118 25 -63 57 -141 71 -172 18 -40 22 -58 13 -62 -7 -2 -4 -5 6 -5
10 -1 17 -7 15 -13 -3 -7 -1 -17 4 -23 5 -5 62 -118 127 -250 93 -187 116
-243 108 -255 -9 -12 -9 -13 3 -3 11 10 19 3 43 -40 16 -28 50 -88 76 -132 25
-44 46 -82 46 -85 0 -3 8 -16 18 -30 10 -14 45 -66 77 -117 44 -69 55 -94 46
-103 -8 -8 -7 -10 4 -6 16 6 73 -65 73 -90 0 -8 2 -12 5 -9 6 6 102 -131 102
-145 0 -5 4 -10 8 -10 16 0 71 -89 59 -94 -8 -3 -8 -5 1 -5 17 -1 26 -11 99
-106 68 -88 66 -85 141 -173 29 -34 50 -62 47 -62 -4 0 7 -12 24 -26 17 -14
31 -29 31 -33 0 -3 40 -49 90 -101 49 -52 90 -99 91 -105 0 -5 112 -117 248
-247 253 -244 261 -251 396 -364 44 -36 91 -76 105 -88 14 -11 46 -36 70 -55
25 -19 52 -41 60 -48 19 -17 73 -57 139 -103 28 -19 49 -40 46 -47 -2 -7 2
-10 11 -6 7 3 14 -1 14 -8 0 -7 3 -9 6 -6 12 12 125 -75 119 -91 -4 -11 -2
-12 7 -5 9 7 46 -12 130 -67 65 -43 115 -80 113 -84 -3 -3 -2 -4 1 -1 8 6 104
-47 104 -57 0 -5 7 -8 15 -8 8 0 15 -4 15 -10 0 -5 4 -9 9 -7 5 1 17 -7 26
-18 9 -11 14 -15 11 -8 -4 6 47 -18 111 -54 180 -99 450 -233 633 -312 91 -40
176 -77 190 -83 14 -7 28 -12 32 -12 3 -1 10 -4 14 -8 4 -5 14 -8 22 -8 8 0
28 -7 45 -14 18 -8 119 -44 225 -80 107 -36 199 -69 205 -73 6 -4 18 -8 27 -8
20 -2 249 -64 278 -76 13 -5 32 -9 42 -9 11 0 20 -5 20 -11 0 -5 4 -8 10 -4 5
3 49 -4 97 -15 130 -30 136 -32 163 -36 14 -3 81 -15 150 -29 441 -85 902
-121 1415 -112 486 9 784 40 1258 133 98 19 183 31 189 28 7 -4 8 -2 4 4 -4 7
0 13 11 13 36 3 58 7 76 14 17 7 18 6 3 -30 -9 -21 -16 -39 -16 -42 0 -2 -5
-1 -12 3 -7 4 -8 3 -4 -4 7 -12 -46 -126 -64 -137 -6 -3 -8 -10 -5 -15 3 -4
-12 -43 -32 -86 -20 -44 -38 -86 -39 -94 -2 -8 -8 -16 -14 -18 -5 -2 -8 -8 -5
-12 3 -5 -3 -28 -14 -52 -10 -24 -31 -72 -45 -108 -15 -39 -31 -64 -38 -62
-10 3 -10 1 -2 -8 9 -9 8 -22 -4 -53 -9 -23 -19 -44 -22 -47 -3 -3 -5 -9 -5
-15 -1 -15 -68 -219 -74 -225 -3 -3 -6 -9 -6 -15 0 -9 -18 -68 -32 -105 -3 -8
-7 -22 -8 -30 -1 -8 -13 -53 -28 -100 -34 -114 -107 -395 -107 -415 0 -9 -4
-13 -10 -10 -5 3 -7 0 -4 -8 3 -8 -4 -52 -15 -98 -18 -74 -71 -334 -71 -348 0
-2 17 15 38 40 66 78 91 101 101 94 6 -3 8 0 5 8 -3 9 23 44 70 91 42 42 76
79 76 83 0 9 292 302 299 300 3 -1 38 30 78 68 94 91 101 97 113 90 5 -3 7 0
5 8 -4 8 29 42 87 90 51 42 100 82 108 89 53 46 158 128 164 128 3 0 15 9 26
20 12 12 26 18 32 14 6 -4 8 -3 5 3 -7 11 110 100 124 96 5 -2 9 1 9 6 0 10
113 88 222 154 167 101 379 203 392 189 3 -3 6 -1 6 5 0 5 34 20 76 33 44 14
78 31 81 40 19 59 59 156 65 158 5 2 6 7 4 11 -2 3 7 51 20 106 35 145 42 287
18 411 -10 54 -18 105 -17 112 0 6 -3 12 -7 12 -4 0 -13 15 -21 33 -7 17 -28
56 -46 85 -27 44 -32 57 -22 68 7 8 19 12 28 9 8 -3 12 -3 8 1 -9 9 52 36 64
28 5 -3 9 -1 9 5 0 17 133 34 226 29 96 -6 198 -34 253 -70 19 -13 42 -28 52
-33 24 -15 149 -137 149 -146 0 -4 14 -21 31 -38 19 -19 29 -37 25 -47 -3 -8
-2 -12 4 -9 14 8 101 -87 95 -103 -3 -7 -1 -10 5 -7 5 3 33 -25 63 -62 30 -38
61 -74 71 -82 12 -11 14 -17 5 -28 -9 -10 -9 -12 3 -8 10 4 40 -24 91 -83 60
-71 73 -92 64 -102 -9 -10 -9 -11 0 -6 14 8 36 -12 112 -101 31 -37 50 -67 45
-74 -4 -7 -3 -9 3 -6 8 5 63 -43 63 -55 0 -3 23 -29 50 -59 28 -30 48 -60 45
-67 -3 -7 -1 -11 4 -8 10 6 101 -96 101 -113 0 -6 4 -11 9 -11 5 0 43 -42 85
-92 80 -98 119 -144 162 -193 14 -16 52 -63 85 -103 33 -41 75 -90 94 -110 19
-20 35 -43 35 -49 0 -7 4 -13 9 -13 16 0 202 -231 195 -242 -4 -6 -3 -8 4 -4
6 3 23 -10 39 -30 15 -20 38 -46 51 -57 12 -11 22 -25 22 -29 0 -5 16 -25 35
-45 20 -20 33 -43 30 -50 -2 -8 -1 -11 5 -8 9 6 79 -63 80 -78 0 -4 10 -18 23
-30 27 -26 237 -275 237 -281 0 -3 14 -18 31 -35 19 -19 29 -37 25 -47 -3 -9
-2 -12 5 -9 13 9 100 -86 94 -103 -3 -7 -1 -10 5 -7 5 3 27 -18 50 -47 22 -29
55 -69 73 -88 68 -72 97 -112 91 -122 -4 -6 -3 -8 3 -5 6 4 29 -15 51 -42 32
-38 38 -51 29 -61 -9 -10 -9 -11 0 -6 15 8 39 -14 122 -114 34 -41 71 -85 82
-96 10 -12 19 -24 19 -26 0 -3 23 -29 50 -59 28 -30 48 -60 45 -67 -3 -7 -1
-11 4 -8 10 7 29 -14 210 -234 34 -41 74 -89 89 -106 15 -16 36 -41 47 -55 11
-13 44 -52 73 -86 32 -37 51 -67 46 -74 -4 -7 -3 -9 3 -6 5 3 18 -4 28 -16 60
-70 162 -187 192 -219 21 -22 32 -42 27 -49 -5 -8 -3 -9 5 -5 15 10 86 -58 76
-73 -4 -7 0 -8 10 -5 10 4 28 -6 50 -30 18 -20 37 -36 42 -36 4 0 24 -15 44
-34 20 -18 44 -36 54 -39 9 -4 13 -11 10 -17 -3 -6 1 -7 9 -4 9 4 18 -1 22
-10 3 -9 10 -16 16 -16 14 0 38 -27 30 -34 -3 -4 2 -4 12 0 10 4 21 3 25 -2 7
-11 35 -26 156 -86 113 -57 229 -100 325 -122 41 -9 82 -21 91 -26 9 -4 112
-7 230 -6 200 2 220 4 309 30 52 15 135 48 184 72 85 43 207 121 214 137 2 4
8 7 12 7 10 0 75 58 205 183 50 48 95 84 99 80 4 -4 5 -1 1 7 -3 8 5 26 17 40
28 31 40 51 93 153 23 42 45 74 50 70 4 -5 5 -2 0 5 -4 8 -3 24 3 35 19 39 41
120 58 212 13 72 15 126 10 275 -6 200 -8 232 -16 240 -3 3 -16 48 -29 100
-43 175 -142 401 -248 568 -18 29 -33 57 -33 62 0 6 -4 10 -8 10 -5 0 -26 26
-48 57 -21 31 -68 91 -103 132 -34 42 -70 85 -80 96 -37 46 -117 141 -134 159
-10 11 -15 26 -13 33 3 7 -1 10 -9 6 -9 -3 -18 3 -22 13 -4 11 -18 30 -32 44
-14 14 -46 50 -71 80 -25 30 -62 75 -83 100 -20 25 -43 52 -51 60 -65 71 -136
165 -132 175 2 7 -1 12 -8 11 -6 0 -33 24 -59 54 -26 30 -56 64 -65 75 -50 56
-122 143 -122 148 0 3 -12 18 -27 34 -42 43 -128 144 -131 154 -2 5 -26 33
-53 62 -27 28 -49 58 -49 65 0 6 -5 12 -11 12 -5 0 -7 5 -3 12 4 6 3 8 -3 5
-14 -9 -96 90 -87 105 4 6 3 8 -4 5 -5 -4 -33 21 -61 55 -28 35 -57 70 -65 78
-19 21 -92 108 -124 149 -15 18 -34 40 -42 50 -40 44 -216 255 -225 269 -5 9
-18 23 -27 32 -9 8 -46 51 -82 95 -36 44 -74 89 -84 100 -10 11 -59 69 -108
129 -49 60 -108 130 -131 156 -24 26 -43 50 -43 53 0 3 -16 22 -35 43 -20 21
-34 43 -31 50 3 8 -1 11 -9 7 -9 -3 -18 3 -22 13 -4 11 -18 31 -32 45 -60 59
-82 89 -75 100 4 7 3 9 -3 6 -6 -4 -34 22 -62 56 -64 76 -113 134 -142 167
-11 14 -37 45 -57 70 -34 42 -96 116 -126 150 -57 64 -85 103 -79 112 3 6 2 8
-4 5 -6 -4 -21 5 -33 18 -13 14 -21 25 -18 25 4 0 -6 13 -20 28 -44 46 -127
144 -131 155 -2 6 -13 20 -25 31 -55 54 -96 108 -90 118 4 6 3 8 -3 5 -14 -9
-96 90 -87 105 4 6 3 8 -3 5 -9 -6 -113 102 -113 116 0 2 -18 24 -40 48 -22
24 -40 50 -40 56 0 7 -4 13 -8 13 -13 0 -53 95 -74 174 -22 84 -23 167 -3 261
18 86 80 219 96 209 8 -4 9 -3 5 5 -4 6 4 26 18 44 38 46 30 36 165 242 68
105 136 209 152 232 16 23 29 46 29 52 0 6 5 11 11 11 5 0 7 5 4 10 -3 6 -1
10 4 10 6 0 11 5 11 10 0 10 120 233 137 255 14 18 203 409 203 420 0 2 13 32
29 67 105 226 272 688 331 913 5 17 18 66 30 110 174 643 249 1260 237 1960
-7 414 -30 671 -92 1040 -46 272 -146 709 -192 832 -8 23 -12 46 -9 51 3 6 2
12 -2 14 -10 3 -123 332 -125 361 -1 9 -4 17 -8 17 -6 0 -22 42 -24 65 0 6 -7
20 -14 33 -7 13 -24 53 -37 90 -14 36 -34 84 -44 107 -10 22 -39 86 -64 143
-26 57 -90 189 -144 295 -53 106 -96 198 -95 204 0 7 -3 11 -7 8 -5 -3 -14 11
-20 30 -6 19 -16 35 -21 35 -5 0 -9 6 -9 14 0 7 -8 24 -19 37 -10 13 -32 49
-48 80 -17 31 -37 67 -46 80 -9 12 -13 27 -10 32 3 6 2 8 -3 5 -7 -5 -193 272
-187 279 1 1 -10 15 -25 31 -15 16 -34 42 -42 57 -8 16 -25 40 -38 54 -12 14
-20 31 -17 38 2 8 1 12 -4 9 -7 -5 -121 134 -121 148 0 3 -16 22 -35 43 -19
21 -35 42 -35 46 0 4 -16 26 -36 47 -20 22 -44 50 -52 62 -9 13 -46 57 -84 99
-37 42 -68 79 -68 82 0 4 -18 23 -40 43 -22 20 -40 40 -40 43 0 8 -35 45 -263
279 -77 78 -142 142 -146 142 -4 0 -26 19 -48 43 -22 23 -58 57 -79 76 -110
97 -292 250 -333 280 -25 19 -48 37 -51 41 -7 9 -257 192 -307 225 -24 15 -43
32 -43 36 0 5 -5 9 -10 9 -6 0 -37 17 -68 39 -270 184 -750 450 -1032 571 -41
18 -100 43 -130 57 -80 36 -84 38 -210 86 -221 85 -445 160 -645 216 -38 11
-110 32 -160 45 -49 14 -110 30 -135 35 -25 5 -90 19 -145 31 -153 33 -396 76
-535 95 -69 9 -132 19 -140 22 -8 4 -21 5 -28 4 -7 -1 -84 5 -170 13 -322 32
-693 41 -1047 25z m807 -239 c418 -28 887 -99 1233 -186 55 -14 127 -32 160
-40 178 -43 685 -215 845 -287 30 -14 66 -28 80 -32 86 -27 708 -339 742 -373
6 -6 16 -12 21 -12 20 0 146 -83 140 -93 -3 -6 -1 -7 5 -3 11 7 124 -58 130
-75 2 -5 9 -9 15 -9 10 0 114 -66 127 -80 3 -4 22 -16 43 -29 21 -13 43 -28
50 -34 7 -7 38 -30 70 -51 32 -21 62 -46 67 -55 5 -9 10 -12 10 -7 0 5 10 0
23 -12 12 -11 41 -33 63 -49 23 -15 61 -44 85 -65 24 -20 68 -55 97 -78 29
-22 50 -45 47 -50 -3 -6 0 -7 8 -4 8 3 27 -10 46 -31 17 -20 31 -32 31 -29 0
4 17 -9 38 -28 95 -91 181 -170 197 -182 11 -8 15 -18 10 -26 -6 -9 -4 -11 4
-6 17 11 86 -58 75 -75 -5 -8 -3 -10 5 -5 17 11 86 -58 75 -75 -5 -8 -3 -10 5
-5 15 10 86 -58 76 -73 -3 -7 0 -8 9 -5 9 4 18 0 22 -9 3 -8 31 -42 62 -74
112 -116 133 -143 126 -154 -4 -7 -3 -9 3 -6 8 5 113 -103 113 -118 0 -3 18
-25 40 -47 22 -23 40 -48 40 -55 0 -7 4 -13 8 -13 4 0 26 -24 47 -52 22 -29
50 -64 62 -78 13 -14 23 -27 23 -31 0 -3 22 -34 50 -70 27 -35 50 -70 50 -76
0 -7 4 -13 9 -13 7 0 150 -208 186 -270 5 -10 31 -52 56 -93 26 -40 50 -84 53
-95 4 -12 12 -22 17 -22 5 0 9 -6 9 -14 0 -8 6 -21 13 -28 42 -43 337 -632
392 -783 10 -27 22 -54 25 -60 14 -20 50 -125 42 -125 -4 0 -2 -4 4 -8 29 -19
199 -547 264 -817 11 -49 27 -115 35 -145 36 -142 84 -423 114 -670 41 -326
46 -417 46 -880 0 -409 -3 -478 -24 -680 -13 -124 -28 -227 -32 -228 -5 -2 -7
-8 -4 -13 7 -11 -28 -259 -56 -396 -80 -399 -129 -585 -246 -933 -47 -140 -88
-257 -92 -260 -3 -3 -7 -13 -9 -23 -4 -20 -124 -312 -151 -367 -10 -19 -73
-146 -141 -282 -68 -136 -132 -257 -142 -268 -10 -11 -18 -22 -17 -26 3 -9
-42 -84 -50 -84 -4 0 -8 -6 -8 -12 0 -23 -45 -88 -56 -81 -6 3 -7 1 -3 -6 5
-7 -24 -62 -69 -132 -83 -128 -272 -398 -299 -424 -9 -9 -16 -19 -16 -23 0 -4
-15 -24 -33 -44 -17 -20 -43 -51 -57 -70 -14 -18 -37 -45 -52 -60 -14 -16 -24
-28 -20 -28 3 0 -5 -11 -18 -25 -12 -13 -27 -22 -33 -18 -6 3 -7 1 -4 -5 8
-12 -46 -79 -148 -186 -16 -18 -50 -55 -75 -84 -26 -31 -50 -50 -58 -47 -7 3
-10 0 -7 -6 10 -15 -61 -83 -76 -73 -8 5 -10 3 -5 -5 11 -17 -58 -86 -75 -75
-8 5 -10 3 -5 -5 10 -15 -58 -86 -73 -76 -6 3 -9 0 -5 -8 3 -8 -6 -23 -21 -35
-14 -11 -65 -56 -113 -100 -111 -101 -232 -204 -232 -198 0 3 -15 -9 -34 -27
-54 -50 -66 -58 -76 -52 -6 4 -9 1 -8 -5 3 -13 -259 -219 -279 -220 -7 0 -13
-5 -13 -11 0 -6 -7 -8 -16 -5 -8 3 -12 2 -9 -4 7 -12 -65 -61 -78 -53 -6 3 -8
2 -4 -3 5 -9 -108 -90 -115 -82 -2 2 -15 -7 -28 -20 -27 -25 -262 -172 -275
-172 -5 0 -16 -6 -24 -14 -9 -7 -41 -27 -71 -43 -30 -16 -81 -44 -112 -62 -32
-18 -58 -29 -58 -24 0 4 -4 3 -8 -3 -9 -15 -152 -86 -152 -77 0 5 -4 3 -8 -3
-9 -15 -152 -86 -152 -77 0 5 -4 3 -8 -2 -4 -6 -47 -28 -97 -49 -49 -21 -108
-46 -130 -56 -74 -34 -199 -82 -217 -83 -10 -1 -18 -4 -18 -8 0 -11 -459 -161
-470 -154 -6 3 -10 2 -10 -3 0 -11 -158 -54 -171 -46 -5 3 -9 2 -9 -3 0 -11
-146 -46 -159 -39 -5 3 -11 2 -13 -4 -3 -11 -210 -59 -272 -62 -23 -2 -43 -6
-46 -9 -8 -10 -376 -66 -540 -83 -626 -65 -1281 -49 -1854 45 -100 17 -192 32
-206 34 -133 20 -651 145 -645 155 2 3 -7 6 -20 6 -23 2 -161 42 -180 52 -5 3
-19 7 -31 8 -12 1 -50 14 -85 27 -35 14 -82 31 -104 37 -22 7 -53 18 -70 25
-16 7 -86 34 -155 60 -69 27 -129 51 -135 55 -5 4 -37 17 -70 30 -126 48 -605
290 -735 370 -8 5 -58 35 -110 66 -184 110 -340 216 -333 227 3 5 1 7 -4 4 -6
-4 -46 19 -89 50 -114 81 -237 174 -249 187 -5 6 -23 19 -38 29 -15 10 -25 23
-21 29 4 6 3 8 -3 5 -11 -7 -113 69 -113 84 0 5 -5 9 -10 9 -10 0 -24 11 -129
104 -134 118 -182 167 -175 178 4 7 3 8 -4 4 -15 -9 -84 54 -77 71 2 8 0 11
-5 8 -14 -9 -82 56 -75 72 2 8 0 11 -5 8 -14 -9 -82 56 -75 72 2 8 1 11 -5 8
-8 -5 -150 134 -158 155 -2 5 -20 26 -40 47 -57 60 -90 102 -84 108 3 3 0 5
-5 5 -17 0 -114 121 -106 132 3 6 1 8 -4 5 -14 -9 -167 189 -158 203 4 6 1 9
-5 8 -16 -4 -181 223 -175 240 3 7 1 11 -4 7 -9 -5 -159 219 -161 240 -1 6
-10 19 -20 30 -10 11 -20 26 -22 34 -2 8 -11 23 -20 33 -10 10 -18 25 -18 33
0 8 -4 15 -9 15 -10 0 -23 30 -18 42 1 4 -5 13 -14 20 -30 24 -210 369 -309
593 -29 66 -63 143 -75 170 -37 82 -135 342 -135 357 0 8 -4 18 -9 24 -5 5
-20 45 -34 89 -63 202 -91 291 -92 305 -1 8 -5 22 -8 30 -13 31 -37 134 -32
138 3 3 1 10 -4 16 -4 6 -14 32 -21 58 -10 40 -10 51 1 65 13 16 12 17 -3 4
-10 -7 -18 -11 -18 -7 0 3 -16 84 -35 179 -114 561 -151 974 -142 1552 7 402
28 665 82 1005 29 182 77 420 85 420 5 0 6 9 3 20 -3 11 0 26 6 33 6 8 9 16 6
18 -11 11 93 382 177 634 79 238 110 315 127 315 12 0 13 2 3 8 -9 6 -7 22 12
68 14 32 29 58 35 57 6 -2 8 4 5 12 -4 8 3 35 15 60 12 25 21 50 21 55 0 6 5
8 12 4 7 -4 8 -3 4 4 -7 12 3 35 109 259 68 142 193 375 209 388 7 6 14 15 15
20 4 26 13 45 22 45 5 0 9 7 9 15 0 8 8 23 18 33 9 10 18 25 20 33 2 8 13 24
25 37 12 13 21 27 19 30 -5 14 150 242 160 235 7 -3 8 -1 4 5 -8 13 179 282
195 282 5 0 8 3 7 8 -5 14 35 63 48 58 8 -3 11 0 8 8 -7 17 65 108 78 100 6
-4 8 -3 5 3 -7 11 69 113 84 113 5 0 9 5 9 11 0 15 52 69 62 63 4 -3 5 1 2 9
-3 8 12 29 34 49 22 20 41 40 43 46 8 22 150 162 159 157 6 -3 7 0 5 8 -7 16
61 81 75 72 5 -3 7 0 5 8 -7 16 61 81 75 72 5 -3 7 0 5 8 -4 8 48 61 132 139
198 180 211 190 224 182 7 -4 9 -3 5 4 -7 11 150 149 165 145 5 -2 9 1 9 6 0
16 194 158 209 153 8 -3 11 0 7 6 -6 9 65 67 87 71 4 0 16 10 27 21 12 12 26
18 32 14 6 -4 8 -3 4 4 -6 10 62 59 75 55 4 -1 17 9 29 22 13 14 29 25 36 25
7 0 14 4 16 8 2 5 36 30 76 56 63 40 76 45 90 34 15 -11 15 -11 5 2 -10 13 -8
18 8 28 11 7 25 10 31 6 7 -4 8 -3 4 4 -4 7 -2 12 4 12 6 0 18 7 27 15 8 8 19
13 24 10 5 -4 9 -1 9 5 0 7 7 10 15 6 8 -3 14 -1 12 5 -2 9 232 148 257 152 6
1 13 5 16 9 8 10 385 191 455 218 33 13 65 26 70 30 6 4 66 28 135 55 69 26
139 53 155 61 70 30 433 146 462 147 18 1 33 5 33 8 0 6 19 12 170 52 116 31
225 56 265 61 17 2 37 6 45 9 47 18 418 80 436 73 8 -3 14 -2 14 2 0 12 297
45 590 65 115 8 705 6 842 -3z"/>
<path d="M17535 25114 c-76 -4 -512 -42 -565 -49 -339 -49 -633 -110 -959
-199 -76 -21 -98 -23 -110 -13 -14 11 -14 10 -2 -5 11 -15 11 -18 -1 -18 -13
0 -333 -105 -391 -129 -16 -6 -31 -11 -35 -11 -11 0 -305 -121 -397 -163 -182
-85 -566 -280 -598 -305 -7 -5 -32 -20 -57 -33 -25 -13 -63 -36 -85 -51 -29
-19 -43 -24 -53 -16 -9 8 -11 7 -6 -5 3 -10 -3 -20 -18 -28 -13 -6 -62 -38
-109 -70 -48 -32 -89 -55 -93 -52 -3 4 -6 2 -6 -4 0 -6 -24 -26 -52 -44 -29
-19 -86 -59 -127 -89 -41 -30 -81 -54 -89 -52 -8 2 -11 -1 -8 -7 7 -11 -33
-43 -45 -35 -4 2 -11 -1 -15 -7 -5 -8 -3 -9 7 -4 20 11 3 -5 -53 -49 -29 -23
-52 -35 -60 -30 -7 4 -10 4 -6 -1 10 -11 -20 -38 -33 -29 -7 4 -9 3 -6 -4 9
-13 -180 -175 -193 -167 -6 4 -9 2 -8 -4 2 -6 -75 -84 -171 -173 -156 -145
-253 -246 -483 -497 -38 -41 -68 -77 -68 -82 0 -4 -15 -20 -32 -35 -18 -15
-32 -29 -30 -31 4 -6 -91 -123 -100 -123 -5 0 -8 -4 -8 -10 0 -11 -130 -183
-142 -188 -5 -2 -8 -7 -8 -12 0 -13 -83 -130 -92 -130 -4 0 -8 -7 -8 -15 0 -8
-4 -15 -10 -15 -5 0 -10 -6 -10 -13 0 -7 -10 -24 -22 -37 -13 -14 -23 -27 -23
-30 0 -17 -130 -208 -138 -203 -6 3 -7 1 -3 -5 4 -6 -18 -53 -48 -104 -99
-168 -220 -401 -296 -565 -49 -108 -79 -163 -89 -163 -12 0 -13 -2 -3 -8 9 -6
-1 -39 -41 -135 -30 -70 -56 -124 -60 -121 -3 3 -3 -3 0 -15 3 -13 1 -21 -6
-21 -7 0 -10 -4 -6 -10 3 -5 1 -17 -5 -27 -5 -10 -21 -52 -34 -93 -13 -41 -29
-86 -34 -100 -6 -14 -25 -72 -42 -130 -57 -189 -71 -235 -77 -250 -6 -15 -8
-26 -11 -63 -1 -11 -7 -15 -14 -11 -8 5 -9 2 -5 -10 7 -18 -39 -223 -54 -242
-5 -6 -7 -13 -4 -16 3 -3 -8 -72 -24 -154 -16 -82 -35 -188 -42 -236 -7 -48
-15 -85 -18 -83 -4 2 -6 -18 -6 -43 -1 -26 -11 -132 -22 -237 -68 -594 -51
-1239 48 -1843 11 -68 17 -127 14 -132 -4 -6 -2 -10 4 -10 5 0 10 -8 10 -17 0
-20 64 -317 81 -376 6 -22 9 -45 6 -53 -3 -8 -2 -13 3 -10 4 3 14 -20 21 -52
7 -31 21 -83 31 -116 10 -32 17 -62 14 -66 -3 -5 -1 -10 5 -12 6 -2 11 -18 13
-36 1 -17 5 -32 8 -32 13 0 18 -44 6 -52 -9 -6 -8 -8 3 -8 21 0 95 -221 77
-232 -8 -5 -7 -8 5 -8 19 0 44 -63 32 -81 -4 -7 -3 -9 3 -6 6 4 20 -20 33 -56
12 -34 28 -76 35 -92 42 -92 54 -128 49 -136 -3 -5 -1 -9 4 -9 11 0 45 -71 37
-78 -3 -3 1 -12 9 -21 8 -9 39 -68 68 -131 29 -63 80 -164 112 -225 33 -60 59
-116 59 -122 0 -7 4 -13 8 -13 12 0 69 -112 62 -123 -3 -6 -1 -7 5 -3 7 4 12
1 12 -8 0 -8 3 -16 8 -18 16 -7 101 -161 95 -172 -3 -6 -3 -8 2 -4 11 11 98
-120 89 -134 -4 -7 -3 -8 4 -4 7 4 12 1 12 -7 0 -8 7 -20 15 -27 19 -16 125
-168 125 -180 0 -5 3 -10 8 -12 13 -6 135 -172 135 -184 0 -7 5 -12 11 -11 5
1 10 -3 11 -10 0 -7 7 -18 16 -25 31 -26 109 -125 102 -131 -3 -4 -2 -7 4 -7
6 0 63 -60 126 -132 63 -73 129 -146 146 -162 17 -17 31 -32 31 -36 0 -6 292
-300 298 -300 2 0 56 -48 120 -107 149 -136 131 -120 247 -214 55 -44 106 -88
113 -97 6 -8 12 -13 12 -9 0 4 48 -29 108 -74 59 -45 195 -140 302 -211 107
-72 197 -133 200 -137 3 -3 11 -7 18 -9 24 -5 62 -34 56 -43 -3 -5 2 -6 10 -3
9 3 16 1 16 -6 0 -6 4 -9 9 -6 4 3 30 -9 57 -26 27 -18 51 -32 54 -33 9 -2 75
-38 80 -44 4 -5 467 -231 545 -266 17 -8 73 -31 125 -51 52 -21 99 -41 104
-46 6 -4 17 -8 25 -8 9 0 29 -7 45 -15 15 -8 32 -15 36 -15 5 0 21 -5 37 -11
70 -29 302 -104 443 -145 85 -24 162 -47 170 -51 8 -3 22 -7 30 -8 8 -1 88
-19 177 -39 359 -80 636 -123 1023 -158 224 -20 887 -17 1125 5 368 35 774
103 1058 178 42 11 82 17 87 14 6 -3 10 -2 10 3 0 5 21 15 48 21 75 18 249 70
345 103 49 16 94 31 100 32 7 1 18 5 25 9 6 5 12 5 12 0 0 -4 4 -3 8 3 8 12
191 80 210 78 6 -1 12 2 12 6 0 4 33 19 73 35 39 15 110 46 157 67 47 22 103
47 125 56 22 8 50 22 63 30 12 8 22 10 22 6 0 -5 4 -4 8 2 10 16 149 84 156
76 3 -3 6 -1 6 5 0 6 26 22 58 37 31 15 75 38 97 51 21 13 43 21 47 19 4 -3 8
-1 8 3 0 5 30 26 68 48 37 21 109 65 160 97 52 32 98 55 104 52 7 -4 8 -2 4 4
-4 7 -1 12 8 12 9 0 16 4 16 8 0 5 12 15 28 23 15 8 29 17 32 20 8 9 128 89
134 89 3 0 17 11 32 25 15 14 33 25 40 25 7 0 17 6 21 13 12 19 109 87 117 82
3 -3 4 -2 1 1 -4 6 172 147 177 142 2 -1 20 15 41 36 22 21 44 35 52 32 10 -3
12 0 8 11 -5 12 -2 15 10 10 10 -4 15 -1 12 6 -4 14 151 150 171 150 7 0 12 3
11 6 -4 13 78 91 90 86 8 -2 12 -1 9 3 -2 4 70 81 160 171 90 90 164 167 164
171 0 4 19 25 43 48 23 23 58 61 79 84 20 24 53 63 75 88 21 25 49 58 63 75
14 16 37 42 52 57 14 15 24 28 21 28 -3 0 2 9 12 20 10 11 22 17 28 13 6 -3 7
-1 3 5 -7 12 101 162 116 162 4 0 8 6 8 13 0 11 25 45 64 90 9 9 13 17 10 17
-4 0 10 20 30 44 20 24 36 47 36 51 0 9 83 130 92 133 4 2 8 8 8 13 0 12 52
93 63 97 4 2 7 10 7 18 0 8 4 14 9 14 5 0 13 9 16 20 12 38 86 155 96 152 6
-1 8 2 4 8 -5 9 10 49 24 60 11 9 228 441 271 540 23 52 48 108 56 124 8 16
14 33 14 37 0 4 13 36 29 71 28 61 60 150 140 383 121 350 234 814 278 1138 9
70 21 127 26 127 4 0 6 4 3 9 -3 5 3 91 14 192 32 311 43 572 37 879 -6 260
-32 617 -57 774 -5 34 -16 108 -25 166 -9 58 -23 139 -31 180 -7 41 -16 89
-18 105 -2 17 -6 37 -9 45 -3 8 -27 101 -52 205 -25 105 -52 213 -59 240 -22
82 -106 348 -121 380 -7 17 -16 41 -20 55 -9 34 -73 206 -96 257 -11 23 -19
44 -19 47 0 3 -11 29 -24 58 -13 29 -44 98 -69 153 -24 55 -81 172 -125 260
-45 88 -92 180 -104 205 -13 25 -25 47 -29 50 -13 12 -124 214 -122 221 2 5
-1 9 -5 9 -10 0 -102 143 -102 158 0 6 -3 12 -8 14 -4 2 -53 68 -109 148 -102
145 -145 206 -161 225 -4 6 -28 37 -52 70 -47 63 -121 155 -198 244 -26 29
-51 61 -56 70 -5 9 -18 22 -28 30 -11 7 -17 19 -14 27 3 8 0 11 -9 7 -8 -3
-17 2 -21 10 -3 8 -31 42 -62 74 -176 184 -290 297 -373 373 -51 47 -113 104
-136 126 -23 23 -46 44 -51 45 -21 9 -121 103 -116 111 3 4 -2 5 -10 2 -9 -3
-20 3 -28 15 -7 12 -18 21 -24 21 -16 0 -45 35 -37 45 5 4 3 5 -4 1 -11 -6
-123 71 -158 108 -6 6 -19 16 -30 23 -11 6 -19 16 -17 23 1 6 -2 8 -8 5 -7 -4
-21 1 -33 12 -24 20 -48 37 -163 115 -43 29 -80 56 -82 60 -2 5 -8 8 -13 8 -8
0 -78 42 -104 63 -5 4 -59 37 -120 73 -60 35 -109 69 -108 74 2 6 0 9 -5 9
-20 -3 -42 2 -54 14 -29 26 -627 323 -668 331 -23 5 -256 101 -258 108 -2 4
-7 6 -11 3 -4 -2 -43 9 -87 26 -134 51 -346 120 -411 134 -18 3 -33 10 -33 13
0 4 -10 7 -22 8 -13 0 -86 17 -163 38 -351 92 -766 161 -1180 196 -133 11
-716 20 -860 14z m864 -1018 c363 -39 717 -101 929 -162 45 -13 89 -24 97 -24
8 0 15 -5 15 -11 0 -5 5 -7 10 -4 6 4 37 -3 70 -14 33 -12 65 -21 70 -21 6 0
27 -7 48 -16 20 -9 44 -18 52 -19 18 -3 167 -52 195 -64 11 -5 71 -28 133 -52
62 -23 115 -46 118 -51 3 -4 12 -8 20 -8 24 0 366 -165 509 -245 33 -18 67
-37 75 -41 65 -32 149 -88 143 -97 -3 -6 -1 -7 6 -3 11 7 112 -49 119 -66 2
-5 8 -8 13 -8 5 0 51 -28 102 -62 92 -62 105 -72 132 -95 7 -7 16 -13 20 -13
11 0 115 -82 115 -91 0 -5 3 -8 8 -7 17 6 289 -222 488 -409 182 -171 217
-210 207 -226 -3 -7 -2 -9 2 -4 8 7 125 -99 125 -114 0 -4 17 -24 38 -46 45
-47 120 -135 141 -166 8 -12 28 -35 43 -52 15 -16 28 -33 28 -36 0 -3 10 -17
21 -30 40 -45 129 -169 129 -179 0 -5 5 -10 10 -10 6 0 10 -6 10 -14 0 -7 7
-20 16 -27 17 -14 119 -162 145 -210 8 -14 27 -46 43 -69 100 -151 301 -540
405 -785 173 -409 309 -890 380 -1342 57 -362 66 -491 65 -918 0 -300 -4 -427
-17 -550 -31 -283 -68 -516 -116 -725 -40 -175 -46 -195 -61 -208 -8 -8 -9
-11 -2 -7 6 3 12 3 12 0 0 -10 -49 -186 -70 -250 -11 -33 -26 -80 -34 -105
-16 -48 -79 -225 -119 -330 -66 -175 -227 -508 -352 -730 -106 -189 -355 -563
-431 -648 -13 -15 -43 -54 -68 -87 -24 -33 -63 -80 -85 -104 -23 -24 -41 -47
-41 -50 -1 -3 -21 -28 -45 -54 -28 -30 -45 -43 -45 -33 0 9 -7 16 -15 16 -8 0
-20 9 -27 20 -7 11 -18 20 -25 20 -7 0 -13 7 -13 16 0 8 -4 13 -9 9 -5 -3 -17
5 -25 17 -9 12 -16 20 -16 17 0 -4 -17 10 -37 29 -21 20 -37 39 -36 43 1 3 -5
6 -14 5 -9 0 -18 5 -21 13 -3 9 0 11 8 6 9 -5 11 -4 6 4 -4 6 -12 9 -17 5 -11
-7 -105 74 -101 88 1 5 -1 7 -5 5 -16 -10 -54 13 -51 30 2 11 -2 17 -11 15
-19 -4 -103 67 -95 80 4 6 2 8 -4 4 -6 -3 -32 14 -58 39 -27 25 -53 45 -59 45
-5 0 -26 16 -45 35 -19 19 -38 35 -43 35 -4 0 -5 5 -2 10 3 6 -1 10 -9 10 -21
0 -238 220 -232 235 2 7 -3 12 -12 11 -10 0 -16 6 -16 16 1 10 -3 16 -10 15
-6 -1 -9 5 -8 13 2 8 0 12 -4 8 -10 -11 -55 44 -49 60 3 7 1 11 -4 8 -4 -3
-16 3 -26 14 -10 11 -14 20 -9 20 5 0 -2 7 -14 16 -12 8 -19 20 -16 26 4 7 2
8 -5 4 -7 -5 -17 5 -26 26 -8 18 -14 29 -15 24 0 -6 -6 -1 -14 9 -8 11 -12 24
-9 29 4 5 1 6 -6 2 -6 -4 -14 0 -18 11 -11 28 -50 85 -75 111 -12 12 -18 22
-13 22 6 0 6 3 0 8 -18 13 -55 71 -55 87 0 8 -4 15 -9 15 -10 0 -111 154 -111
169 0 6 -4 11 -10 11 -5 0 -17 15 -25 33 -8 17 -24 47 -36 66 -16 27 -18 36
-7 43 10 8 9 9 -4 5 -14 -5 -28 10 -32 33 -1 3 -11 19 -22 35 -12 17 -39 62
-59 100 -21 39 -41 75 -46 80 -21 28 -66 124 -61 131 4 4 2 4 -4 1 -16 -9 -25
18 -11 32 9 9 8 11 -3 6 -11 -4 -23 8 -40 42 -14 27 -24 54 -23 60 0 7 -4 10
-10 6 -6 -4 -8 0 -4 11 4 9 3 15 -2 12 -11 -7 -33 43 -25 56 4 6 2 8 -4 4 -6
-3 -16 7 -24 24 -7 16 -16 30 -19 30 -13 0 -18 44 -6 53 8 6 7 7 -4 4 -17 -6
-49 44 -52 80 0 12 -4 20 -8 17 -4 -2 -28 37 -53 88 -37 71 -44 93 -34 101 9
6 8 7 -6 3 -14 -5 -17 -2 -12 9 3 9 2 13 -4 10 -5 -3 -12 6 -16 20 -3 14 -10
25 -15 25 -5 0 -8 3 -7 8 1 4 -20 51 -46 104 -26 54 -45 102 -41 108 3 5 2 10
-2 10 -5 0 -14 10 -22 21 -11 18 -11 23 1 31 10 8 9 9 -3 5 -11 -4 -20 3 -28
19 -14 32 -14 54 0 54 6 0 8 -7 5 -16 -5 -14 -4 -15 8 -5 15 13 61 4 108 -20
10 -5 24 -9 32 -9 8 0 27 -5 43 -12 15 -6 32 -10 37 -9 5 1 17 -6 27 -15 11
-9 19 -13 19 -8 0 5 4 3 9 -4 4 -7 17 -15 27 -17 10 -2 20 -4 22 -4 1 -1 5 -2
10 -3 4 0 13 -8 20 -17 10 -12 12 -12 6 -1 -7 13 -5 13 9 1 9 -7 14 -17 11
-22 -3 -5 2 -6 10 -3 8 3 21 1 28 -5 7 -6 35 -27 61 -47 29 -22 46 -41 43 -49
-3 -9 0 -12 9 -9 25 10 43 -50 46 -162 2 -54 4 -61 21 -56 20 5 20 5 18 86 -1
46 1 56 12 50 11 -6 11 -5 0 8 -7 9 -14 36 -15 61 -1 25 -5 43 -8 41 -8 -4
-19 21 -19 41 0 8 -11 26 -25 41 -14 15 -25 31 -25 36 0 5 -7 16 -15 24 -8 9
-15 13 -15 10 0 -3 -19 12 -42 34 -40 40 -165 117 -180 112 -5 -1 -8 2 -8 8 0
5 -8 10 -19 10 -10 0 -24 7 -31 15 -7 9 -19 14 -25 11 -7 -2 -17 -1 -24 4 -10
5 -7 13 10 29 12 11 29 21 36 21 7 0 13 5 13 11 0 5 4 8 9 4 5 -3 12 -1 15 4
10 15 87 52 97 45 5 -3 8 0 7 8 -2 7 5 12 14 12 10 -1 16 2 13 6 -7 11 24 41
36 35 5 -4 9 -1 9 4 0 6 7 11 15 11 8 0 15 4 15 9 0 5 11 8 25 7 13 -2 22 0
20 4 -4 7 34 23 60 25 6 0 16 4 23 8 6 5 17 5 24 1 6 -4 8 -3 5 3 -7 11 61 35
75 27 4 -3 8 -1 8 5 0 6 15 13 34 17 19 3 37 12 40 20 3 8 12 14 21 14 18 0
115 49 130 65 19 22 87 55 97 49 7 -5 8 -2 3 6 -6 10 -4 12 9 7 9 -4 15 -3 12
2 -3 5 2 15 11 22 14 12 16 12 8 0 -5 -10 -4 -12 3 -7 7 4 12 14 12 22 0 8 4
14 8 14 17 0 128 101 169 154 12 15 25 27 30 27 4 -1 8 2 8 7 1 12 51 86 69
101 8 7 14 17 11 21 -3 4 2 13 10 20 8 7 15 20 15 30 0 10 6 23 14 29 7 6 21
36 31 66 9 30 21 53 26 49 5 -3 6 2 3 10 -3 8 0 25 7 38 7 13 14 30 15 38 11
64 18 87 31 103 11 11 12 17 4 17 -7 0 -11 10 -10 23 1 12 -1 30 -5 40 -3 9
-8 24 -11 33 -7 21 -30 -2 -33 -32 -3 -35 -6 -48 -14 -54 -4 -3 -9 -17 -11
-30 -10 -55 -20 -90 -26 -90 -4 0 -13 -20 -20 -45 -7 -25 -21 -49 -30 -54 -9
-5 -15 -11 -13 -13 7 -6 -16 -54 -32 -67 -9 -7 -16 -20 -16 -27 0 -8 -3 -14
-8 -14 -4 0 -12 -10 -17 -22 -6 -13 -16 -22 -23 -21 -7 2 -11 -3 -9 -10 1 -6
-4 -11 -11 -9 -8 1 -11 -2 -7 -8 8 -12 -83 -110 -102 -110 -8 0 -11 -4 -8 -10
6 -9 -8 -14 -27 -11 -5 0 -7 -5 -5 -12 1 -6 -4 -11 -11 -9 -8 1 -11 -2 -8 -7
3 -5 -19 -23 -49 -40 -30 -17 -55 -34 -55 -37 0 -3 6 -2 13 2 8 5 9 4 2 -3 -5
-5 -26 -16 -45 -23 -19 -8 -37 -17 -40 -20 -11 -14 -98 -60 -113 -60 -10 0
-17 -4 -17 -10 0 -5 -11 -10 -24 -10 -13 0 -27 -6 -29 -12 -3 -7 -6 -4 -6 6
-1 11 11 33 26 48 15 15 28 34 29 41 3 18 34 74 34 62 1 -5 8 10 17 35 8 25
24 57 34 72 11 14 19 33 19 42 0 20 85 108 95 98 4 -4 5 0 3 8 -2 8 2 14 8 13
7 -1 11 5 10 15 0 10 6 16 16 16 11 -1 14 4 11 13 -3 8 -2 18 3 22 15 11 86
101 79 101 -4 0 3 13 14 29 12 16 21 32 21 35 0 3 16 30 35 60 19 30 35 62 35
71 0 8 5 15 11 15 5 0 8 4 4 9 -3 5 -1 12 5 16 5 3 10 15 10 26 0 10 4 19 10
19 5 0 9 3 8 8 -3 8 20 117 30 142 10 27 11 53 12 243 0 106 -5 197 -10 207
-6 10 -10 32 -10 49 0 16 -4 32 -9 35 -5 3 -8 19 -7 35 1 17 -1 28 -5 25 -4
-2 -13 13 -20 33 -14 44 -58 133 -73 149 -6 6 -18 22 -26 34 -8 12 -28 40 -43
62 -15 21 -25 43 -22 48 3 5 -1 7 -9 4 -9 -3 -17 2 -21 15 -3 12 -10 21 -14
21 -5 0 -26 16 -47 36 -22 20 -55 46 -74 59 -47 30 -68 55 -74 87 -2 14 -9 36
-16 47 -6 12 -8 27 -4 33 4 6 3 8 -3 5 -6 -4 -16 8 -23 26 -6 17 -23 54 -36
81 -18 39 -21 52 -11 59 8 6 7 7 -5 3 -18 -5 -43 25 -31 38 3 3 1 6 -5 6 -6 0
-19 15 -28 33 -9 17 -25 42 -36 54 -11 12 -17 26 -13 33 3 6 3 10 -2 9 -23 -4
-35 2 -29 16 3 8 0 14 -7 12 -7 -1 -11 5 -9 13 2 8 0 12 -4 7 -10 -9 -65 43
-58 55 3 5 0 7 -8 6 -7 -2 -12 3 -10 10 1 8 -2 11 -7 8 -5 -3 -11 1 -15 9 -3
8 -12 15 -20 15 -8 0 -28 12 -45 26 -17 14 -31 23 -31 20 0 -3 -23 8 -50 24
-28 17 -57 30 -64 30 -42 0 -147 95 -128 115 4 5 2 5 -4 2 -6 -4 -22 5 -34 18
-22 23 -20 30 5 25 6 -1 5 4 -2 11 -11 11 -7 38 7 49 3 3 17 32 30 65 13 33
27 65 31 70 4 6 10 24 13 40 3 17 10 31 16 33 5 2 7 8 4 13 -3 6 -1 15 4 22
11 13 12 17 12 43 0 9 5 12 13 8 8 -5 8 -2 -2 9 -7 9 -9 17 -4 17 5 0 10 14
11 31 1 17 7 39 12 48 5 9 11 37 14 62 3 24 8 61 11 83 2 21 10 45 17 54 10
12 10 14 1 8 -10 -6 -13 34 -11 187 1 106 -2 198 -5 204 -4 5 -9 41 -12 78 -3
38 -9 73 -14 79 -5 6 -11 67 -14 136 -3 69 -8 132 -10 140 -3 8 -8 56 -12 105
-3 50 -8 104 -11 120 -2 17 -6 46 -8 65 -2 19 -14 57 -26 83 -12 27 -20 58
-17 68 3 10 1 17 -4 13 -5 -3 -9 -1 -9 4 0 5 -11 26 -25 46 -14 21 -22 43 -19
49 4 7 3 9 -1 4 -11 -9 -46 43 -38 57 3 6 3 8 -2 4 -12 -11 -35 11 -35 33 0
11 -3 18 -7 17 -5 -1 -37 28 -73 65 -36 38 -82 77 -102 88 -21 11 -38 22 -38
25 0 3 4 3 9 -1 5 -3 12 -1 15 4 3 4 -2 8 -12 7 -21 -1 -142 55 -142 66 0 4
-6 5 -14 2 -8 -3 -17 0 -21 5 -3 6 -10 9 -15 6 -5 -3 -11 -1 -15 5 -3 5 -19
10 -36 10 -16 0 -29 3 -29 8 0 4 -19 8 -41 10 -23 1 -49 7 -58 12 -9 5 -59 10
-110 11 -51 2 -94 6 -96 10 -3 3 -28 2 -57 -4 -39 -8 -53 -7 -56 1 -2 7 -9 12
-16 12 -7 0 -26 7 -42 15 -16 8 -45 17 -64 19 -71 11 -105 18 -122 27 -9 5
-21 9 -25 8 -4 -1 -10 -1 -13 0 -3 2 -19 4 -37 7 -18 2 -54 7 -80 10 -67 9
-413 12 -413 4 0 -4 -6 -7 -12 -7 -58 -4 -120 -12 -125 -17 -4 -3 -21 -6 -40
-6 -18 0 -49 -7 -68 -14 -19 -8 -35 -13 -35 -10 0 3 -9 0 -20 -6 -15 -8 -20
-8 -20 2 0 10 -2 10 -9 -1 -5 -8 -14 -10 -21 -6 -8 5 -11 4 -6 -3 4 -7 -7 -13
-29 -18 -19 -3 -38 -10 -41 -15 -3 -5 -10 -6 -16 -3 -6 4 -13 1 -17 -5 -4 -6
-17 -13 -29 -16 -12 -2 -28 -7 -35 -12 -6 -4 -18 -8 -26 -10 -8 -1 -17 -6 -20
-12 -4 -6 -16 -12 -28 -14 -12 -1 -28 -9 -37 -16 -9 -7 -16 -11 -16 -7 0 3
-12 -4 -26 -17 -14 -12 -28 -20 -31 -19 -3 2 -9 0 -12 -5 -14 -20 -132 -84
-143 -77 -6 4 -8 3 -5 -3 9 -14 -15 -34 -42 -36 -16 -1 -18 -4 -8 -16 7 -9 8
-12 1 -8 -6 3 -21 -5 -34 -18 -13 -13 -27 -22 -32 -19 -5 3 -8 2 -7 -3 3 -19
-2 -33 -13 -33 -6 0 -39 -28 -72 -62 -33 -35 -64 -62 -68 -61 -4 2 -7 -1 -5
-5 3 -10 -74 -112 -85 -112 -4 0 -8 -5 -8 -11 0 -15 -51 -80 -59 -75 -4 3 -8
-5 -8 -16 -1 -11 -9 -28 -17 -37 -18 -20 -137 -257 -146 -291 -6 -22 -12 -25
-63 -28 -31 -2 -57 1 -57 5 0 4 -70 7 -157 5 -120 -2 -158 0 -164 10 -7 11 -9
11 -9 0 0 -8 -9 -13 -22 -11 -13 1 -30 -1 -38 -4 -8 -3 -78 -8 -155 -11 -142
-6 -305 -20 -360 -30 -16 -4 -52 -8 -80 -11 -74 -6 -128 -15 -145 -22 -8 -3
-17 -7 -20 -8 -6 -1 -104 -17 -107 -17 -2 0 -26 -6 -55 -13 -41 -11 -55 -12
-67 -2 -12 9 -13 9 -7 -1 8 -13 -32 -34 -47 -25 -4 3 -14 -1 -22 -7 -8 -6 -19
-9 -24 -6 -5 4 -12 2 -15 -3 -5 -7 -39 -17 -86 -25 -3 -1 -25 -8 -50 -17 -54
-20 -171 -59 -185 -63 -5 -1 -21 -6 -34 -10 -16 -6 -27 -4 -33 5 -8 11 -9 10
-4 -3 3 -12 -2 -22 -17 -30 -12 -6 -24 -11 -27 -10 -3 0 -25 -8 -49 -19 -51
-22 -54 -23 -45 -6 4 7 3 9 -2 4 -5 -5 -9 -12 -9 -15 0 -6 -169 -92 -180 -92
-3 0 -29 -16 -59 -35 -30 -19 -59 -35 -64 -35 -5 0 -19 -11 -32 -25 -12 -13
-25 -23 -29 -22 -7 2 -93 -54 -102 -67 -4 -5 -12 -5 -19 -1 -9 5 -11 4 -6 -3
4 -7 3 -12 -2 -12 -13 0 -245 -227 -277 -270 -14 -19 -25 -30 -25 -25 0 5 -15
-15 -33 -45 -18 -30 -39 -54 -45 -53 -6 2 -9 -4 -6 -12 4 -8 1 -15 -6 -15 -6
0 -8 -4 -5 -10 9 -14 -8 -12 -25 3 -9 7 -8 4 1 -8 16 -20 15 -50 -1 -40 -4 3
-8 -1 -7 -8 1 -34 -4 -48 -15 -41 -6 4 -8 3 -5 -3 8 -12 -14 -73 -26 -73 -4 0
-5 -5 -2 -10 4 -6 2 -17 -5 -24 -6 -8 -13 -24 -15 -36 -8 -40 -27 -94 -39
-109 -6 -8 -10 -16 -8 -18 1 -1 2 -10 2 -19 0 -14 -2 -15 -17 -3 -15 11 -14
10 1 -9 11 -12 14 -22 8 -22 -6 0 -9 -6 -6 -14 3 -8 0 -24 -6 -37 -7 -12 -14
-34 -15 -48 -2 -14 -6 -37 -8 -51 -2 -14 -7 -43 -11 -65 -3 -23 -8 -51 -11
-63 -6 -34 -9 -388 -3 -398 4 -5 9 -33 13 -63 9 -74 12 -87 24 -109 5 -10 12
-29 14 -43 10 -57 20 -89 27 -89 5 0 13 -15 20 -34 13 -40 88 -147 151 -214
17 -18 79 -72 114 -98 11 -9 15 -13 8 -10 -6 4 -14 2 -18 -3 -3 -6 3 -8 13 -6
10 2 38 -10 62 -26 24 -16 51 -29 61 -29 16 0 23 -11 37 -60 3 -8 6 -66 8
-128 2 -62 8 -122 14 -132 5 -10 10 -41 10 -69 0 -28 4 -81 10 -118 13 -90 40
-290 44 -330 2 -17 7 -36 10 -41 3 -5 8 -29 11 -53 6 -48 13 -84 15 -84 1 0 4
-13 6 -30 3 -16 9 -43 14 -60 6 -16 11 -42 12 -57 1 -16 6 -28 11 -28 5 0 7
-6 4 -14 -3 -7 -2 -17 3 -22 9 -10 57 -148 62 -179 2 -11 7 -23 11 -26 4 -3 9
-15 10 -27 0 -11 4 -19 8 -16 13 7 18 -23 6 -36 -9 -9 -9 -11 -1 -7 12 7 44
-33 44 -53 0 -5 8 -19 18 -30 9 -11 17 -24 17 -28 0 -5 13 -20 29 -35 16 -15
26 -27 21 -27 -4 0 30 -36 75 -80 46 -44 85 -78 88 -76 2 3 30 -12 61 -34 31
-22 65 -40 74 -40 10 0 20 -7 23 -15 4 -8 9 -13 13 -11 4 3 13 1 21 -4 12 -7
11 -10 -5 -16 -11 -4 -22 -11 -25 -14 -10 -14 -148 -52 -208 -57 -34 -3 -65
-9 -67 -14 -7 -10 35 -49 52 -49 7 0 13 -4 13 -10 0 -5 6 -7 13 -5 6 3 41 -2
77 -9 36 -8 74 -12 85 -10 11 2 50 6 87 8 37 2 73 8 80 12 7 5 23 10 35 12 20
2 22 -1 19 -33 -1 -19 2 -35 7 -35 4 0 7 -10 6 -22 -1 -13 1 -30 4 -38 20 -53
32 -281 17 -327 -5 -16 -11 -53 -15 -83 -3 -30 -10 -77 -15 -105 -6 -27 -15
-85 -21 -127 -7 -43 -14 -78 -18 -78 -10 0 -2 -142 10 -171 5 -14 11 -35 12
-48 1 -18 97 -124 97 -107 0 3 19 -1 41 -9 27 -10 81 -15 154 -15 140 0 208
-8 201 -25 -2 -7 3 -12 12 -11 20 1 63 -76 69 -124 2 -19 5 -41 8 -47 2 -7 -1
-13 -8 -13 -8 0 -8 -3 2 -9 8 -5 12 -18 8 -30 -3 -12 -2 -23 3 -26 8 -5 24
-64 21 -78 -1 -5 3 -6 9 -2 5 3 10 2 10 -3 0 -14 70 -40 129 -48 49 -6 59 -15
51 -49 -9 -40 -10 -74 -1 -80 6 -3 11 -19 11 -34 0 -26 61 -107 72 -95 3 2 11
-2 18 -11 9 -11 33 -15 89 -15 l76 -1 45 -55 c25 -30 46 -61 48 -69 2 -8 8
-15 13 -15 5 0 9 -6 9 -14 0 -8 4 -16 8 -18 4 -2 20 -32 35 -68 16 -36 32 -72
37 -80 35 -58 70 -126 70 -137 0 -7 5 -13 10 -13 6 0 10 -7 10 -15 0 -9 7 -18
15 -21 8 -4 15 -10 15 -15 0 -13 35 -46 57 -53 10 -3 33 -20 52 -36 18 -16 48
-32 67 -36 19 -3 37 -10 40 -15 3 -5 9 -7 13 -5 4 3 54 6 112 7 57 1 109 4
114 7 6 4 15 7 20 8 28 6 163 57 183 70 17 11 22 12 22 2 0 -8 5 -6 11 4 11
20 104 69 113 61 3 -4 6 -2 6 4 0 12 90 69 103 65 4 -1 7 3 7 9 0 6 7 8 16 5
8 -3 13 -2 10 2 -5 8 28 42 40 42 2 0 29 18 59 41 30 22 58 38 62 36 5 -3 17
1 28 9 10 8 13 14 7 14 -7 0 -12 5 -12 10 0 6 6 10 14 10 8 0 21 8 28 18 16
21 98 86 98 77 0 -3 11 6 25 21 14 15 25 25 25 22 0 -3 21 14 47 38 25 24 49
42 52 41 3 -1 7 2 8 6 3 11 30 37 38 37 4 0 26 16 49 35 24 19 47 31 51 27 5
-4 5 -2 2 4 -4 7 14 28 40 50 47 39 72 50 74 33 2 -12 6 -28 9 -34 1 -3 3 -9
4 -14 0 -5 4 -13 9 -17 4 -4 7 -18 7 -31 0 -13 4 -23 9 -23 8 0 23 -53 25 -90
1 -8 5 -21 10 -29 12 -18 27 -77 32 -125 2 -22 9 -43 15 -47 6 -3 10 -9 9 -13
-1 -3 1 -23 6 -44 4 -20 8 -44 9 -52 1 -8 6 -33 12 -55 10 -33 15 -85 24 -230
2 -37 -13 -180 -20 -189 -5 -6 -12 -32 -16 -58 -4 -27 -12 -48 -18 -48 -6 0
-7 -3 -4 -7 4 -3 2 -12 -4 -20 -6 -7 -8 -13 -5 -13 4 0 1 -12 -7 -27 -8 -16
-23 -47 -33 -70 -10 -22 -23 -39 -28 -36 -5 4 -6 1 -2 -5 9 -16 -63 -124 -77
-115 -5 3 -7 2 -4 -4 7 -12 -70 -99 -84 -95 -5 1 -9 -3 -9 -9 0 -5 -5 -7 -12
-3 -6 4 -8 3 -5 -3 10 -17 -81 -67 -173 -95 -53 -17 -113 -28 -160 -29 -41 -1
-90 -6 -108 -10 -19 -4 -99 -9 -179 -10 -79 -2 -146 -6 -148 -10 -2 -3 -32 -7
-67 -9 -145 -6 -177 -9 -248 -20 -107 -16 -238 -32 -285 -33 -22 -1 -43 -6
-46 -10 -5 -7 -78 -21 -164 -31 -11 -2 -27 -6 -35 -9 -8 -4 -26 -9 -40 -11
-14 -3 -42 -10 -62 -15 -21 -5 -38 -7 -38 -4 0 3 -6 0 -13 -6 -8 -6 -17 -8
-20 -4 -4 3 -13 0 -22 -7 -8 -7 -15 -10 -15 -7 0 3 -15 0 -32 -7 -18 -8 -41
-12 -50 -11 -10 2 -18 -1 -18 -7 0 -6 -11 -8 -25 -6 -13 3 -22 1 -19 -3 3 -5
-2 -9 -11 -9 -17 0 -96 -30 -157 -60 -27 -14 -39 -15 -48 -6 -10 8 -11 8 -6
-1 5 -8 -3 -17 -21 -24 -15 -6 -36 -15 -45 -20 -13 -6 -18 -5 -19 3 0 7 -5 3
-11 -9 -6 -12 -22 -24 -37 -28 -14 -4 -46 -20 -70 -36 -25 -16 -48 -29 -53
-29 -5 0 -14 -5 -21 -10 -38 -32 -91 -70 -97 -70 -9 0 -43 -31 -150 -135 -117
-115 -145 -145 -164 -182 -9 -18 -20 -33 -25 -33 -4 0 -16 -18 -26 -40 l-18
-40 -31 19 c-17 11 -46 27 -63 37 -18 9 -33 20 -33 25 0 5 -7 9 -16 9 -9 0
-12 5 -8 12 4 7 3 8 -4 4 -12 -7 -56 17 -47 26 3 2 -1 5 -8 5 -15 0 -110 62
-115 75 -2 4 -9 8 -16 8 -7 0 -24 11 -38 24 -14 12 -33 26 -43 29 -9 4 -13 12
-9 18 4 7 1 10 -7 7 -13 -5 -147 90 -193 136 -12 12 -23 21 -26 21 -9 0 -133
101 -152 123 -9 11 -13 24 -10 28 4 4 1 4 -6 0 -28 -16 -360 304 -619 596 -17
20 -29 39 -26 42 4 3 1 6 -4 6 -17 0 -114 121 -106 132 3 6 1 8 -4 5 -14 -9
-166 190 -157 205 4 6 3 8 -4 4 -11 -6 -52 44 -56 69 -1 8 -6 18 -11 22 -4 4
-5 1 -1 -7 4 -8 -2 -4 -13 10 -11 14 -21 30 -21 37 0 6 -4 13 -8 15 -5 2 -23
25 -41 51 -28 41 -31 50 -19 65 11 15 11 15 -2 5 -13 -10 -18 -8 -28 7 -7 11
-12 22 -12 25 0 3 -7 13 -16 23 -20 21 -104 154 -104 164 0 4 -11 24 -25 44
-14 20 -23 39 -20 42 2 3 -2 10 -10 16 -19 14 -179 328 -245 481 -28 66 -58
134 -65 150 -7 17 -21 50 -30 75 -9 25 -21 54 -26 65 -30 66 -89 252 -86 267
3 10 1 16 -3 13 -12 -7 -23 32 -14 46 4 7 3 9 -3 6 -9 -6 -29 56 -90 283 -70
265 -135 638 -165 955 -17 185 -18 836 0 1005 26 260 56 460 98 665 14 66 30
145 35 175 6 30 14 60 17 65 7 11 8 17 10 53 1 13 5 21 10 19 4 -3 7 11 8 30
0 19 5 38 10 41 5 4 9 12 9 17 1 34 18 95 26 95 6 0 8 4 4 9 -6 11 41 167 61
199 8 12 12 22 10 22 -7 0 21 94 44 150 11 25 37 93 60 153 23 59 46 107 51
107 6 0 8 4 5 9 -10 16 65 171 83 171 12 0 13 2 3 9 -10 6 0 35 45 125 33 64
63 113 68 109 4 -4 5 -3 2 3 -8 14 60 144 75 144 6 0 9 3 5 6 -8 8 20 64 32
64 4 0 8 6 8 13 0 17 99 176 120 194 10 8 12 11 4 7 -9 -5 -7 2 5 18 15 21 22
24 34 15 13 -10 13 -10 2 5 -12 15 -9 24 19 65 18 26 39 52 46 56 7 5 11 11 9
15 -2 4 5 19 16 32 11 14 16 18 12 10 -4 -8 -3 -11 1 -7 5 4 10 14 11 22 4 25
45 75 56 69 7 -4 8 -2 4 4 -6 10 66 118 98 147 6 6 19 23 29 38 10 15 23 25
29 21 6 -4 8 -3 5 4 -8 11 89 132 106 132 5 0 8 3 4 6 -11 11 172 206 186 197
6 -4 7 -1 2 6 -9 15 36 63 230 243 77 71 154 142 170 158 26 24 180 149 243
198 12 9 27 16 32 15 6 -2 9 1 7 6 -3 13 261 211 282 211 5 0 11 4 13 9 4 13
233 157 373 235 66 37 131 74 145 82 78 47 352 174 362 168 6 -4 8 -3 5 2 -5
9 98 57 117 54 5 -1 12 2 15 8 9 13 162 73 172 66 5 -3 9 -1 9 5 0 5 24 17 53
26 28 9 66 23 82 30 45 19 291 96 318 99 13 1 27 5 32 8 12 7 190 55 247 67
379 78 601 113 833 131 77 6 158 12 180 14 101 10 729 -4 864 -18z m1138 -735
c12 -11 23 -17 26 -14 3 3 12 1 19 -3 7 -5 15 -9 18 -9 7 -1 124 -77 130 -85
3 -3 22 -19 43 -35 21 -15 36 -34 33 -41 -3 -8 0 -11 8 -8 20 8 79 -53 72 -72
-5 -14 -4 -15 8 -5 12 10 19 5 41 -30 47 -74 102 -189 91 -189 -6 0 -5 -4 3
-9 8 -5 10 -14 6 -21 -5 -8 -4 -11 2 -7 9 6 28 -45 24 -65 0 -5 3 -8 8 -8 8 0
17 -42 27 -120 1 -13 -1 -31 -6 -40 -8 -12 -9 -11 -10 7 0 12 -5 25 -11 28 -6
4 -8 13 -5 20 2 7 1 16 -4 21 -21 24 -109 207 -104 216 4 7 2 8 -4 4 -7 -4
-20 7 -33 28 -12 20 -25 36 -29 36 -5 0 -14 16 -21 35 -7 19 -15 33 -17 30 -3
-2 -18 15 -35 38 -17 23 -38 48 -46 55 -13 11 -13 12 -1 7 8 -4 6 1 -4 9 -22
18 -159 142 -217 197 -21 20 -40 35 -43 32 -2 -2 -7 0 -11 6 -11 19 20 12 42
-8z m834 -2661 c12 0 116 -105 139 -140 8 -12 21 -29 28 -36 7 -8 10 -14 6
-14 -4 0 1 -6 12 -14 10 -8 19 -18 19 -23 1 -4 11 -23 22 -42 12 -19 20 -38
17 -43 -3 -5 0 -7 6 -6 6 2 17 -11 24 -28 14 -31 13 -32 -13 -32 -29 0 -54 16
-45 29 3 5 -1 6 -9 3 -16 -6 -60 43 -51 57 3 5 0 9 -5 9 -6 0 -11 7 -11 15 0
8 -5 15 -11 15 -5 0 -17 17 -26 37 -8 21 -23 48 -34 61 -10 13 -15 30 -12 39
4 9 2 14 -3 10 -5 -3 -20 11 -33 30 -12 19 -17 32 -9 28 7 -3 4 0 -6 9 -10 8
-22 17 -26 18 -4 2 -11 14 -15 28 -7 23 -7 23 9 7 10 -9 22 -17 27 -17z m314
-561 c4 -5 18 -14 32 -20 14 -5 21 -14 17 -21 -4 -6 -3 -8 4 -4 14 8 19 -1 23
-44 2 -19 7 -37 11 -40 4 -3 8 -20 10 -38 1 -18 5 -32 9 -32 4 0 9 -26 13 -57
18 -156 18 -163 7 -163 -6 0 -11 13 -11 28 0 16 -7 42 -15 59 -8 16 -16 40
-17 54 -2 13 -6 27 -11 30 -4 3 -9 15 -12 27 -2 12 -7 27 -10 32 -3 6 0 10 7
10 8 1 7 4 -4 10 -13 8 -38 61 -43 90 0 3 -6 15 -13 28 -7 12 -9 22 -5 22 4 0
2 5 -5 12 -7 7 -12 16 -12 20 0 12 18 10 25 -3z m167 -118 c-1 -7 2 -9 9 -6
11 8 46 -34 41 -49 -2 -5 3 -6 11 -3 26 10 207 -232 207 -277 0 -9 5 -16 11
-16 6 0 9 -9 6 -20 -3 -11 -2 -18 3 -15 11 7 17 -14 16 -47 -1 -14 2 -24 6
-22 8 5 26 -58 28 -96 0 -14 3 -53 6 -88 3 -35 2 -71 -2 -80 -8 -20 -10 -29
-17 -79 -6 -37 -10 -54 -24 -90 -3 -10 -8 -26 -9 -35 -5 -22 -45 -111 -54
-118 -4 -3 -19 -28 -35 -57 -15 -29 -32 -50 -38 -46 -6 3 -7 2 -4 -4 10 -16
-104 -163 -126 -163 -6 0 -7 21 -3 53 17 138 26 525 11 530 -5 2 -10 54 -11
118 -4 283 -7 385 -13 394 -3 6 -7 24 -8 40 -1 17 -8 67 -16 113 -10 58 -11
82 -3 79 6 -3 10 -10 8 -16z m-3412 -4625 c0 -3 -4 -8 -10 -11 -5 -3 -10 -1
-10 4 0 6 5 11 10 11 6 0 10 -2 10 -4z"/>
<path d="M15376 23543 c-6 -14 -5 -15 5 -6 7 7 10 15 7 18 -3 3 -9 -2 -12 -12z"/>
<path d="M16727 22579 c7 -7 15 -10 18 -7 3 3 -2 9 -12 12 -14 6 -15 5 -6 -5z"/>
<path d="M12540 20610 c-9 -6 -10 -10 -3 -10 6 0 15 5 18 10 8 12 4 12 -15 0z"/>
<path d="M21055 19981 c-3 -5 -2 -12 3 -15 5 -3 9 1 9 9 0 17 -3 19 -12 6z"/>
<path d="M13653 19945 c0 -8 4 -12 9 -9 5 3 6 10 3 15 -9 13 -12 11 -12 -6z"/>
<path d="M21250 18346 c0 -2 8 -10 18 -17 15 -13 16 -12 3 4 -13 16 -21 21
-21 13z"/>
<path d="M20366 17538 c3 -5 10 -6 15 -3 13 9 11 12 -6 12 -8 0 -12 -4 -9 -9z"/>
<path d="M16890 15061 c0 -6 4 -13 10 -16 6 -3 7 1 4 9 -7 18 -14 21 -14 7z"/>
<path d="M15296 13698 c3 -5 10 -6 15 -3 13 9 11 12 -6 12 -8 0 -12 -4 -9 -9z"/>
<path d="M14317 13649 c7 -7 15 -10 18 -7 3 3 -2 9 -12 12 -14 6 -15 5 -6 -5z"/>
<path d="M13595 23791 c-3 -5 0 -13 6 -17 7 -4 9 -3 5 4 -3 5 0 13 6 15 9 4
10 6 1 6 -6 1 -14 -3 -18 -8z"/>
<path d="M12130 22186 c0 -2 8 -10 18 -17 15 -13 16 -12 3 4 -13 16 -21 21
-21 13z"/>
<path d="M12139 14383 c-13 -16 -12 -17 4 -4 9 7 17 15 17 17 0 8 -8 3 -21
-13z"/>
<path d="M14419 12333 c-13 -16 -12 -17 4 -4 9 7 17 15 17 17 0 8 -8 3 -21
-13z"/>
<path d="M14289 12303 c-13 -16 -12 -17 4 -4 16 13 21 21 13 21 -2 0 -10 -8
-17 -17z"/>
<path d="M8328 15634 c-3 -3 -28 -7 -54 -9 -27 -3 -69 -9 -94 -15 -73 -16
-104 -22 -122 -23 -9 -1 -14 -5 -12 -9 5 -7 -63 -24 -79 -20 -5 1 -6 -2 -2 -8
3 -5 1 -11 -4 -11 -6 -1 -14 -2 -18 -3 -13 -2 -87 -49 -107 -68 -10 -9 -23
-15 -28 -12 -5 3 -7 2 -6 -3 2 -5 -25 -38 -60 -73 -35 -34 -70 -77 -79 -94 -9
-17 -25 -39 -35 -48 -11 -9 -19 -18 -18 -20 6 -12 -14 -57 -23 -51 -5 3 -7 1
-3 -5 3 -6 0 -28 -8 -49 -8 -21 -18 -51 -22 -68 -4 -16 -8 -34 -10 -40 -16
-65 -25 -173 -19 -240 4 -44 8 -100 10 -124 2 -24 7 -51 10 -60 4 -9 9 -34 11
-56 3 -22 9 -42 14 -45 5 -3 10 -19 13 -35 3 -17 8 -40 12 -52 4 -12 7 -25 6
-28 0 -2 13 -31 29 -62 31 -59 36 -78 23 -86 -5 -2 -2 -2 6 0 9 2 11 -2 7 -14
-4 -10 -4 -14 0 -10 7 6 64 -73 64 -89 0 -3 12 -21 26 -39 15 -20 23 -39 18
-46 -4 -7 -3 -9 3 -6 6 4 24 -11 41 -32 24 -30 28 -41 19 -52 -10 -11 -9 -11
5 0 16 12 19 10 27 -10 5 -13 10 -21 10 -16 1 4 18 -12 39 -35 20 -23 55 -58
77 -77 22 -20 54 -51 73 -68 18 -18 37 -33 43 -33 6 0 8 -7 5 -16 -3 -8 -2
-12 4 -9 14 9 81 -48 70 -59 -6 -6 -14 -5 -22 1 -7 5 -44 10 -82 12 -39 1 -92
6 -119 12 -27 5 -66 9 -86 9 -21 0 -42 5 -47 10 -6 6 -30 12 -55 14 -108 9
-179 19 -179 25 0 3 -15 7 -33 8 -39 2 -107 12 -116 17 -4 3 -27 7 -51 11 -25
3 -63 11 -85 17 -22 5 -56 12 -75 15 -19 3 -39 9 -45 13 -11 8 -59 21 -90 25
-49 6 -102 18 -120 28 -11 6 -22 10 -25 9 -8 -3 -74 10 -85 17 -5 3 -19 7 -30
8 -11 2 -27 6 -35 10 -8 3 -26 8 -40 10 -14 2 -27 8 -28 14 -2 5 -8 6 -13 3
-6 -3 -15 -1 -22 4 -7 5 -29 13 -51 16 -21 4 -50 12 -65 18 -14 6 -31 12 -37
13 -33 7 -54 17 -54 26 0 6 -4 8 -9 5 -5 -3 -25 1 -45 9 -20 8 -36 13 -36 10
0 -3 -10 0 -22 7 -13 7 -27 12 -32 13 -5 0 -12 9 -17 20 l-8 20 -1 -20 c-1
-19 -1 -19 -19 3 -12 13 -21 18 -23 10 -3 -7 -9 -8 -19 -3 -8 5 -21 10 -29 12
-8 1 -24 7 -36 13 -11 7 -32 10 -45 8 -24 -4 -23 -5 6 -18 17 -7 33 -14 37
-14 4 -1 16 -9 28 -18 11 -10 20 -14 20 -10 1 4 10 -4 20 -17 11 -13 20 -17
20 -10 0 10 3 10 11 2 6 -6 18 -9 25 -6 8 3 14 0 14 -7 0 -6 5 -8 10 -5 6 3
10 1 10 -4 0 -6 8 -11 18 -11 10 0 28 -7 40 -16 12 -8 22 -13 22 -10 0 7 95
-38 115 -54 11 -9 15 -9 15 -1 0 7 5 9 10 6 6 -4 8 -10 5 -15 -3 -4 3 -6 14
-3 10 3 22 0 25 -6 4 -6 16 -11 26 -11 10 0 24 -8 29 -17 6 -10 11 -13 11 -5
0 8 6 9 18 4 18 -9 140 -52 157 -56 6 -1 15 -4 20 -7 6 -4 31 -12 57 -20 26
-7 45 -16 42 -20 -2 -4 5 -5 16 -2 11 3 26 0 33 -6 8 -6 17 -8 20 -4 4 3 7 1
7 -5 0 -6 8 -10 18 -10 27 2 154 -34 185 -53 16 -9 37 -14 48 -12 10 3 27 2
36 -2 10 -4 31 -9 46 -11 16 -2 37 -8 47 -14 10 -5 32 -10 49 -10 16 0 32 -4
35 -8 3 -5 38 -14 78 -21 40 -7 109 -20 153 -29 44 -8 99 -17 123 -19 23 -3
42 -8 42 -12 0 -4 12 -6 26 -6 14 1 47 -2 72 -6 121 -21 195 -30 302 -39 140
-12 145 -13 161 -27 14 -11 19 -13 40 -13 5 0 8 -4 5 -8 -2 -4 3 -8 12 -9 9
-1 39 -11 65 -22 27 -12 54 -21 62 -21 7 0 18 -6 24 -14 6 -7 25 -16 42 -20
17 -3 28 -10 25 -15 -3 -5 3 -7 14 -4 11 3 26 1 33 -4 20 -16 154 -54 233 -67
11 -1 26 -6 33 -10 6 -4 26 -9 44 -11 117 -12 163 -19 172 -25 6 -3 37 -7 70
-8 33 -2 105 -5 160 -8 265 -13 582 -2 780 26 128 18 190 28 220 35 27 6 100
20 150 29 11 2 20 4 20 5 0 2 7 4 15 6 8 2 30 8 48 14 17 5 32 8 32 5 0 -3 10
1 22 7 13 7 32 13 43 14 11 1 34 8 50 15 59 25 70 29 105 36 19 4 39 7 43 6 5
-2 6 2 2 8 -3 5 2 13 12 16 10 3 25 9 34 14 10 5 22 4 30 -3 8 -7 10 -8 6 -3
-9 11 41 38 56 29 5 -3 7 -2 4 4 -9 14 118 77 134 68 8 -5 10 -4 5 4 -8 12 71
54 85 45 4 -2 9 5 12 16 3 11 18 25 34 32 15 7 34 18 41 25 7 7 20 10 30 7 11
-4 13 -3 5 3 -13 9 26 46 75 72 12 7 20 16 17 22 -4 5 2 9 11 9 14 0 15 3 7
11 -7 7 -19 8 -30 4 -10 -5 -20 -9 -23 -9 -3 -1 -26 -14 -53 -29 -26 -15 -52
-25 -59 -21 -7 5 -8 3 -3 -6 6 -10 4 -12 -8 -7 -10 4 -16 2 -14 -6 1 -7 -6
-12 -16 -12 -10 0 -21 -5 -25 -10 -4 -6 -25 -20 -47 -32 -22 -11 -56 -30 -76
-41 -28 -16 -40 -18 -49 -9 -10 9 -11 9 -6 -1 9 -15 -59 -47 -76 -36 -6 4 -8
3 -5 -3 8 -13 -50 -36 -66 -26 -5 3 -7 1 -4 -4 6 -9 -21 -22 -58 -28 -5 -1
-27 -9 -47 -18 -20 -9 -58 -22 -85 -28 -26 -6 -56 -15 -65 -20 -10 -5 -30 -9
-46 -9 -15 0 -32 -4 -37 -9 -6 -5 -30 -11 -55 -14 -25 -3 -85 -12 -135 -20
-120 -20 -273 -30 -485 -30 -214 -1 -678 25 -720 40 -8 3 -39 7 -68 9 -29 3
-64 9 -78 14 -14 6 -37 10 -51 10 -14 0 -53 9 -87 20 -33 10 -73 22 -87 25
-15 2 -29 12 -33 20 -4 12 3 15 31 15 19 0 52 4 72 10 83 22 168 42 196 47 17
3 35 9 40 13 6 4 28 13 50 19 22 7 47 15 55 18 8 3 20 7 25 7 18 3 65 29 65
36 0 8 58 24 73 21 5 -1 6 3 2 8 -3 6 9 18 27 27 38 19 129 86 173 126 21 20
32 24 38 15 6 -8 7 -6 3 5 -3 11 6 27 25 45 17 15 37 41 45 56 9 17 20 25 27
21 7 -4 9 -4 5 1 -4 4 7 29 25 54 18 25 46 73 61 106 15 33 32 67 36 76 10 19
25 90 22 102 -1 4 2 7 7 7 11 0 14 272 2 290 -7 9 -6 19 1 27 7 9 6 14 -6 19
-9 3 -14 10 -11 14 3 5 -3 24 -13 42 -10 18 -24 50 -31 71 -7 20 -17 37 -22
37 -5 0 -9 5 -9 10 0 6 -4 16 -10 23 -48 59 -58 75 -52 82 4 5 2 5 -4 2 -15
-9 -77 60 -68 75 4 7 3 8 -5 4 -6 -4 -26 4 -44 19 -50 42 -137 93 -168 100
-16 4 -27 11 -24 16 4 5 0 6 -8 3 -8 -3 -18 -1 -21 5 -4 6 -13 8 -21 5 -8 -4
-17 0 -20 8 -4 10 -15 13 -29 11 -13 -3 -34 0 -46 7 -14 8 -72 11 -168 10
-182 -2 -172 -2 -172 -12 0 -4 -7 -8 -16 -8 -8 0 -12 5 -9 11 4 6 0 9 -10 7
-12 -2 -19 5 -22 22 -7 39 -8 42 -38 105 -16 33 -44 77 -62 98 -19 21 -31 42
-28 48 4 5 1 8 -7 7 -7 -2 -12 3 -10 10 1 8 -2 11 -8 7 -5 -3 -25 5 -42 18
-34 25 -164 98 -173 97 -3 0 -6 0 -7 1 -2 0 -14 2 -28 5 -14 2 -41 8 -60 13
-67 20 -241 37 -252 25z m233 -387 c8 -8 21 -12 30 -10 9 3 28 -1 40 -8 13 -7
27 -14 32 -15 4 -1 10 -2 15 -3 4 -1 25 -17 47 -36 22 -20 47 -38 56 -40 9 -3
19 -13 23 -23 3 -9 11 -25 18 -35 11 -15 10 -20 -7 -33 -51 -38 -79 -60 -91
-71 -7 -7 -14 -13 -17 -13 -2 0 -29 -24 -59 -52 -64 -61 -134 -154 -144 -192
-3 -14 -11 -23 -16 -20 -6 4 -8 1 -6 -7 3 -8 0 -23 -5 -34 -6 -11 -13 -27 -15
-35 -5 -22 -5 -167 1 -177 3 -4 8 -23 12 -40 3 -18 10 -31 14 -30 4 1 19 -9
33 -22 22 -21 35 -24 96 -24 66 0 73 2 114 36 25 20 49 33 53 29 5 -4 5 -2 2
4 -3 6 6 24 21 41 40 45 97 127 94 137 -2 4 2 14 8 22 17 20 50 87 50 101 0 7
9 28 20 48 11 19 19 39 19 43 -5 28 29 72 54 72 9 0 18 4 22 9 3 6 13 10 23
10 165 2 206 1 215 -8 6 -6 23 -11 37 -11 14 0 42 -12 63 -26 21 -14 46 -26
56 -27 11 0 48 -31 84 -67 66 -66 102 -121 89 -135 -4 -5 -2 -5 4 -2 17 10 36
-47 50 -143 2 -19 6 -41 9 -47 2 -7 0 -13 -5 -13 -5 0 -7 -7 -3 -15 6 -18 -16
-135 -28 -149 -5 -6 -9 -17 -9 -25 0 -44 -96 -202 -150 -246 -13 -11 -33 -30
-44 -42 -10 -12 -23 -20 -27 -17 -5 3 -6 -2 -3 -10 4 -12 0 -16 -16 -16 -11 0
-19 -4 -15 -10 11 -18 -224 -148 -245 -135 -6 4 -9 1 -8 -7 3 -15 -166 -76
-230 -82 -22 -2 -45 -6 -50 -10 -10 -6 -77 -15 -157 -21 -22 -2 -40 -4 -40 -5
0 -1 -13 -4 -29 -6 -16 -3 -35 1 -45 9 -9 8 -38 27 -66 42 -27 16 -62 42 -77
59 -16 16 -28 26 -28 22 0 -4 -18 7 -40 24 -22 17 -37 37 -34 42 4 6 3 8 -3 5
-12 -8 -133 103 -133 121 0 7 -4 11 -9 8 -5 -3 -11 4 -14 16 -4 12 -9 19 -13
15 -10 -10 -76 81 -68 95 4 7 3 8 -5 4 -13 -8 -54 31 -46 44 3 4 -2 13 -10 20
-9 7 -13 22 -10 34 3 12 2 15 -1 8 -8 -18 -48 34 -40 54 3 8 2 13 -2 11 -7 -5
-28 13 -28 23 -1 3 -17 38 -37 79 -21 41 -37 83 -37 92 0 10 -4 20 -9 23 -9 6
-24 61 -24 89 0 9 -4 17 -9 17 -6 0 -8 9 -5 20 3 11 1 22 -4 25 -5 3 -7 63 -6
133 4 144 20 196 88 287 77 102 164 174 192 159 7 -4 9 -4 5 1 -10 11 38 35
68 35 13 0 24 4 24 8 0 28 316 46 341 19z m259 -532 c0 -12 -51 -85 -60 -85
-23 0 -18 22 12 54 30 32 48 44 48 31z"/>
<path d="M8606 13618 c3 -5 10 -6 15 -3 13 9 11 12 -6 12 -8 0 -12 -4 -9 -9z"/>
<path d="M12166 13788 c3 -5 10 -6 15 -3 13 9 11 12 -6 12 -8 0 -12 -4 -9 -9z"/>
<path d="M8220 13189 c0 -5 -11 -9 -23 -9 -26 0 -84 -26 -104 -46 -7 -7 -26
-15 -43 -19 -16 -4 -30 -10 -30 -14 0 -12 -54 -39 -73 -36 -9 2 -15 -1 -11 -6
3 -5 11 -7 17 -3 7 3 -1 -5 -18 -19 -16 -13 -33 -24 -36 -23 -4 0 -23 -19 -43
-43 -21 -24 -65 -72 -100 -105 -35 -34 -71 -73 -81 -88 -9 -15 -21 -25 -26
-22 -5 3 -8 2 -7 -3 4 -13 -35 -53 -45 -46 -6 3 -7 1 -3 -6 7 -11 -16 -39
-101 -129 -18 -19 -33 -36 -33 -39 0 -12 -64 -82 -73 -80 -6 1 -11 -6 -12 -16
0 -10 -12 -33 -28 -50 -15 -18 -43 -52 -62 -75 -19 -24 -35 -40 -35 -35 -1 4
-8 -4 -16 -19 -8 -16 -19 -28 -25 -28 -6 0 -8 -4 -5 -9 8 -13 -21 -34 -35 -25
-8 4 -9 3 -5 -5 8 -13 -12 -49 -55 -96 -67 -74 -84 -93 -123 -139 -68 -81
-109 -127 -157 -177 -26 -26 -49 -55 -52 -63 -4 -9 -13 -16 -22 -16 -8 0 -15
-5 -15 -11 0 -5 -5 -7 -12 -3 -7 4 -8 3 -4 -4 4 -6 -15 -33 -42 -61 -27 -28
-47 -53 -44 -55 3 -3 -3 -8 -12 -12 -9 -3 -16 -13 -16 -21 0 -8 -4 -11 -10 -8
-5 3 -10 3 -10 -2 0 -13 -112 -128 -121 -125 -5 1 -8 -4 -7 -10 2 -7 -3 -12
-10 -10 -6 1 -11 -1 -10 -5 2 -5 -12 -27 -31 -51 -26 -31 -37 -39 -44 -30 -6
9 -7 8 -3 -4 3 -12 -10 -31 -40 -60 -25 -24 -50 -42 -55 -41 -4 2 -6 -3 -3
-10 2 -7 -28 -46 -67 -87 -39 -41 -101 -106 -136 -145 -36 -38 -93 -99 -127
-135 -34 -36 -79 -86 -100 -112 -21 -26 -42 -45 -47 -42 -5 3 -9 0 -9 -6 0 -6
-5 -8 -10 -5 -6 4 -10 3 -9 -2 4 -15 -13 -43 -23 -37 -5 3 -12 -3 -15 -15 -3
-11 -9 -18 -14 -15 -5 3 -9 -2 -9 -10 0 -16 -45 -66 -60 -66 -5 0 -11 -8 -15
-17 -3 -10 -20 -29 -38 -42 -17 -13 -41 -38 -53 -55 -11 -18 -28 -30 -38 -29
-12 1 -15 -2 -8 -9 14 -14 -54 -82 -73 -74 -8 3 -12 0 -9 -7 6 -16 -64 -99
-77 -91 -5 3 -9 2 -8 -3 3 -20 -2 -34 -11 -28 -5 3 -10 1 -10 -6 0 -15 -56
-79 -63 -72 -3 3 -3 -4 0 -15 2 -11 0 -23 -6 -26 -12 -8 -15 -133 -5 -160 3
-9 14 -16 24 -16 20 0 91 46 104 67 12 21 108 113 118 113 4 0 8 8 8 18 0 11
17 31 38 45 20 15 35 29 32 31 -10 8 80 97 92 90 7 -4 8 -3 4 4 -10 17 44 74
63 67 12 -5 13 -3 5 5 -8 8 -3 20 19 43 17 18 34 31 39 30 4 -2 7 3 5 10 -1 6
5 11 13 9 8 -2 12 0 7 4 -9 10 43 65 55 58 5 -3 7 0 6 8 -2 7 3 12 10 10 8 -1
11 1 8 6 -7 11 58 87 171 200 112 113 539 555 584 605 110 122 281 287 291
281 7 -4 8 -3 4 5 -8 12 25 57 74 98 39 33 50 23 16 -14 -14 -15 -29 -37 -32
-47 -4 -11 -17 -31 -29 -44 -13 -14 -21 -31 -18 -38 3 -8 -2 -17 -11 -20 -9
-3 -16 -10 -16 -16 0 -15 -46 -78 -53 -72 -4 4 -5 -3 -2 -15 2 -14 -3 -26 -16
-34 -10 -6 -19 -18 -19 -25 0 -15 -45 -97 -68 -124 -8 -10 -11 -18 -6 -18 5 0
4 -4 -1 -8 -12 -8 -85 -154 -85 -169 0 -6 -11 -26 -24 -46 -13 -19 -22 -38
-18 -41 3 -3 1 -6 -5 -6 -5 0 -16 -18 -23 -40 -7 -22 -16 -40 -19 -40 -4 0
-12 -14 -18 -30 -6 -17 -22 -34 -35 -39 -12 -6 -18 -10 -11 -10 14 -1 11 -27
-5 -43 -7 -7 -12 -17 -12 -24 0 -6 -9 -23 -21 -38 -11 -14 -17 -26 -14 -26 4
0 0 -11 -9 -25 -9 -14 -14 -25 -11 -25 4 0 -3 -12 -14 -26 -12 -15 -21 -31
-21 -37 0 -6 -8 -19 -17 -30 -13 -15 -14 -18 -3 -12 13 8 13 7 1 -8 -7 -9 -21
-17 -30 -17 -12 0 -13 -2 -3 -9 19 -12 19 -16 1 -37 -9 -11 -25 -35 -34 -54
-10 -19 -23 -38 -29 -42 -6 -4 -8 -8 -4 -8 6 0 -45 -114 -72 -160 -5 -8 -23
-45 -41 -82 -18 -38 -37 -68 -42 -68 -6 0 -8 -3 -4 -6 4 -5 -43 -112 -73 -164
-14 -24 -71 -144 -71 -150 0 -3 -12 -20 -27 -39 -14 -19 -21 -31 -15 -28 12 8
-18 -55 -39 -80 -11 -14 -11 -16 2 -8 13 8 13 7 1 -8 -7 -9 -21 -17 -30 -17
-9 0 -12 -3 -6 -8 15 -10 13 -21 -15 -72 -13 -25 -25 -47 -25 -50 -1 -3 -11
-25 -23 -49 -12 -25 -22 -51 -22 -58 0 -7 -4 -13 -8 -13 -4 0 -12 -15 -18 -32
-5 -18 -15 -32 -21 -31 -7 2 -10 -3 -7 -11 6 -17 -30 -88 -40 -78 -4 4 -7 3
-6 -3 1 -5 2 -21 1 -34 -1 -18 -5 -22 -18 -16 -14 5 -15 3 -6 -6 12 -12 7 -42
-6 -34 -4 2 -8 -2 -8 -9 0 -15 -51 -146 -63 -161 -4 -5 -11 -25 -15 -42 -3
-18 -11 -33 -17 -33 -6 0 -8 -3 -5 -6 4 -4 0 -19 -7 -33 -28 -53 -44 -95 -40
-103 3 -4 0 -8 -7 -8 -7 0 -10 -3 -6 -6 3 -3 -1 -25 -10 -47 -8 -23 -16 -46
-17 -52 -1 -5 -4 -14 -8 -20 -3 -5 -9 -37 -13 -70 -4 -33 -11 -68 -16 -77 -7
-12 -6 -18 2 -18 7 0 9 -10 7 -25 -3 -14 -1 -28 3 -31 5 -3 9 -22 9 -43 0 -20
4 -41 8 -46 5 -6 15 -30 22 -55 8 -25 17 -47 20 -50 10 -9 44 -85 42 -93 -1
-5 2 -6 8 -2 5 3 14 -4 19 -17 5 -13 27 -44 50 -69 22 -26 37 -50 33 -53 -4
-4 -2 -6 3 -4 13 4 85 -41 85 -53 0 -5 3 -9 8 -8 16 2 51 -14 47 -21 -3 -5 3
-7 12 -5 10 1 28 -4 41 -11 12 -8 22 -12 22 -9 0 3 9 1 19 -5 32 -17 118 -25
266 -25 137 0 165 3 234 24 25 8 38 7 48 -1 11 -8 12 -7 7 6 -4 10 -1 16 7 16
8 0 39 12 69 26 30 14 63 27 74 30 10 2 26 10 35 18 27 24 138 75 146 68 5 -4
5 -1 1 6 -4 7 0 15 11 19 22 8 77 45 81 56 2 4 15 7 28 7 15 0 24 6 24 15 0 8
5 15 11 15 6 0 26 12 45 26 19 15 34 24 34 21 0 -3 14 8 31 24 17 16 42 32 55
35 12 3 30 17 39 31 10 14 22 22 31 19 8 -3 13 0 11 7 -1 7 4 11 11 9 8 -1 11
2 7 8 -4 6 8 17 27 24 18 8 32 17 30 21 -1 3 19 23 46 43 47 36 157 130 191
163 54 54 124 109 132 103 5 -3 8 0 7 8 -2 7 3 12 10 10 8 -1 11 1 8 6 -7 12
48 64 58 55 4 -5 6 -1 4 7 -2 8 3 14 10 12 8 -1 11 1 8 6 -7 12 64 83 76 76 5
-3 8 -2 7 3 -1 4 -1 13 0 20 1 15 182 199 193 196 4 -2 7 1 5 6 -2 8 77 98
188 216 22 23 69 76 105 118 35 42 70 77 77 77 7 0 13 5 13 11 0 5 5 7 12 3 7
-4 8 -3 4 5 -4 6 6 24 23 41 16 17 38 41 48 53 10 13 23 24 28 25 6 1 10 6 10
11 0 16 55 72 65 66 6 -3 7 1 4 10 -5 11 -2 14 12 9 14 -4 15 -3 6 4 -9 6 -13
28 -11 69 1 33 -1 65 -5 71 -4 7 -4 16 -1 22 3 6 -1 7 -9 4 -9 -3 -16 -1 -16
5 0 8 -9 7 -29 -3 -16 -9 -31 -12 -35 -9 -3 4 -6 1 -6 -4 0 -15 -79 -99 -91
-96 -5 2 -8 -3 -6 -10 1 -6 -5 -11 -13 -9 -8 2 -12 0 -8 -4 11 -10 -12 -35
-25 -27 -6 4 -7 1 -2 -6 11 -18 -36 -65 -48 -49 -6 9 -7 8 -3 -4 3 -12 -26
-52 -97 -130 -56 -62 -117 -125 -134 -141 -18 -16 -33 -33 -33 -38 0 -13 -314
-321 -494 -484 -37 -34 -70 -54 -79 -48 -5 3 -7 2 -4 -4 7 -12 -59 -76 -71
-69 -4 3 -14 0 -22 -6 -12 -8 -11 -8 5 -3 11 3 -2 -14 -30 -39 -27 -25 -53
-45 -57 -46 -4 0 -15 -8 -25 -18 -32 -33 -195 -147 -205 -144 -5 1 -17 -6 -26
-17 -18 -20 -112 -75 -112 -65 0 3 -7 -2 -16 -11 -9 -9 -23 -14 -30 -11 -8 3
-14 2 -14 -2 0 -14 -61 -44 -76 -38 -9 3 -12 1 -9 -4 3 -6 -3 -10 -14 -10 -11
0 -23 -5 -26 -10 -4 -6 -35 -10 -72 -9 -54 2 -70 7 -101 31 -41 33 -82 94 -86
130 -1 13 -5 28 -8 33 -14 23 1 215 19 265 3 8 7 21 9 28 1 8 6 21 10 30 4 9
9 26 11 37 2 11 8 24 13 29 6 6 10 20 10 32 0 13 4 25 9 28 5 3 11 18 14 33 3
16 15 56 28 91 16 46 26 61 37 57 12 -4 13 -3 2 10 -9 10 -9 19 -2 28 6 6 11
15 11 20 2 28 26 85 35 83 6 -2 8 -1 4 1 -9 5 0 49 15 78 6 11 12 27 13 35 2
8 7 16 13 18 5 2 7 10 4 18 -3 8 -1 14 4 14 5 0 9 10 10 22 1 11 8 25 14 29 7
4 13 16 14 27 3 36 59 171 69 165 5 -3 6 -1 2 5 -4 6 -1 22 6 34 6 13 13 29
14 36 1 8 9 21 17 30 8 10 12 22 10 29 -2 6 1 14 6 18 6 3 11 17 11 30 0 12 7
26 16 29 8 3 13 10 9 15 -3 6 2 27 11 48 9 21 18 44 20 52 8 41 27 69 42 64
12 -3 13 -2 4 4 -16 12 4 77 22 70 6 -3 12 3 12 13 0 10 -5 16 -10 13 -5 -4
-6 -1 0 8 5 8 9 19 9 24 1 6 6 9 12 8 6 -1 10 5 8 15 -1 9 2 26 8 37 6 11 12
22 12 25 0 3 6 14 12 25 5 11 16 37 22 58 7 20 16 35 20 33 4 -3 8 5 8 17 2
20 11 44 34 89 5 10 9 26 9 35 0 16 2 16 11 3 9 -13 10 -13 5 2 -6 21 24 99
35 92 5 -3 6 2 3 11 -4 10 -1 14 7 12 8 -2 11 -2 7 0 -14 8 -8 27 37 117 24
49 42 93 39 98 -3 4 -1 8 3 8 5 0 15 16 22 35 7 19 16 33 21 30 4 -3 8 1 7 8
-1 46 4 59 21 52 13 -5 14 -3 6 5 -12 12 -8 50 5 50 4 0 17 29 31 64 18 48 28
63 39 59 12 -4 13 -2 4 4 -10 7 -8 20 11 59 96 201 115 241 120 257 3 10 10
16 15 13 5 -3 8 0 7 7 0 6 29 73 65 147 37 74 69 143 73 153 3 10 10 16 15 13
5 -3 8 0 7 7 0 6 14 42 33 79 25 48 38 65 50 61 12 -4 13 -3 3 4 -12 9 -7 41
8 53 3 3 27 49 53 103 27 53 53 97 58 97 6 0 8 4 5 9 -8 12 39 93 48 84 4 -5
6 -3 5 2 -1 6 11 37 27 70 41 84 48 95 57 95 4 0 5 5 2 10 -3 6 -2 10 4 10 5
0 15 17 22 38 6 20 18 41 25 45 8 4 14 14 14 22 0 8 5 17 12 21 7 5 8 3 3 -6
-5 -9 -4 -11 4 -6 6 4 9 12 6 17 -9 13 27 69 38 62 6 -4 7 -1 2 6 -4 7 1 22
12 34 11 12 30 44 44 71 13 26 30 50 37 53 6 3 12 12 12 19 0 8 7 17 15 20 8
4 15 11 15 16 0 6 8 17 18 25 10 8 11 11 2 7 -13 -7 -13 -5 -1 9 7 9 18 14 24
10 6 -3 7 -1 3 6 -9 14 12 43 25 35 5 -3 9 -2 8 3 -4 15 13 63 25 71 6 4 24
26 39 49 23 33 27 48 22 72 -4 17 -5 32 -3 34 5 4 -26 35 -32 32 -3 -2 -22 5
-42 15 -28 14 -62 18 -147 18 -61 0 -111 -4 -111 -9z"/>
<path d="M11760 12391 c0 -26 12 -37 38 -34 23 4 31 -2 53 -36 15 -23 25 -50
22 -63 -2 -13 -6 -40 -9 -60 -4 -21 -10 -38 -15 -38 -5 0 -9 -10 -9 -23 0 -13
-3 -27 -7 -31 -7 -7 -32 -70 -37 -96 -2 -8 -9 -14 -16 -12 -6 1 -9 -2 -6 -7 3
-5 -7 -38 -22 -73 -68 -153 -77 -168 -92 -162 -11 4 -12 2 -3 -7 12 -12 7 -42
-6 -35 -4 3 -8 -5 -8 -16 -1 -11 -9 -35 -17 -52 -8 -17 -19 -44 -25 -59 -6
-16 -15 -26 -20 -23 -5 4 -7 -2 -4 -12 2 -10 -3 -24 -11 -31 -9 -8 -16 -20
-16 -27 0 -8 -5 -14 -11 -14 -5 0 -8 -3 -5 -8 8 -13 -22 -44 -36 -37 -10 6
-10 5 -1 -5 12 -13 7 -43 -6 -36 -4 3 -8 -7 -9 -22 -1 -14 -6 -28 -10 -31 -5
-3 -14 -21 -21 -39 -8 -19 -19 -31 -26 -28 -8 3 -11 -2 -8 -13 2 -10 -9 -40
-26 -66 -17 -27 -31 -55 -31 -63 0 -20 -28 -44 -42 -36 -10 5 -10 4 -1 -6 9
-10 7 -22 -13 -57 -13 -24 -24 -50 -24 -57 0 -7 -9 -21 -19 -30 -11 -10 -21
-28 -23 -40 -2 -11 -10 -20 -17 -18 -8 2 -11 -3 -8 -11 3 -7 -4 -24 -14 -38
-10 -13 -19 -30 -19 -36 0 -7 -9 -23 -20 -35 -10 -13 -20 -27 -21 -33 -3 -26
-20 -44 -37 -39 -12 4 -13 3 -4 -3 10 -8 10 -15 -1 -36 -8 -15 -17 -24 -21
-20 -4 4 -4 -1 0 -11 4 -10 3 -21 -2 -25 -5 -3 -17 -19 -26 -36 -10 -16 -22
-29 -27 -28 -6 2 -8 -4 -5 -12 3 -8 -5 -28 -19 -45 -14 -16 -29 -40 -33 -52
-4 -13 -12 -26 -18 -30 -6 -4 -11 -11 -11 -15 -1 -20 -90 -161 -98 -156 -6 3
-7 1 -3 -5 8 -14 -18 -55 -28 -45 -4 4 -4 1 -1 -8 3 -8 -2 -23 -11 -34 -8 -11
-13 -15 -10 -8 4 6 2 14 -3 17 -5 4 -8 -2 -6 -11 2 -16 -13 -50 -51 -114 -6
-11 -19 -27 -28 -38 -10 -11 -19 -28 -21 -38 -1 -10 -9 -16 -16 -15 -8 2 -11
0 -7 -4 5 -4 -3 -22 -17 -39 -13 -18 -21 -35 -18 -39 4 -3 1 -6 -4 -6 -6 0
-13 3 -16 8 -2 4 -2 1 0 -7 2 -8 -6 -25 -18 -38 -13 -12 -19 -23 -15 -23 4 0
-2 -14 -14 -30 -12 -17 -26 -28 -31 -25 -5 4 -6 0 -3 -8 3 -8 -1 -21 -9 -28
-14 -15 -17 -21 -17 -40 0 -6 -7 -8 -16 -5 -8 3 -12 2 -9 -4 6 -10 -31 -69
-52 -83 -7 -4 -13 -14 -13 -22 0 -24 -33 -57 -42 -42 -5 7 -7 2 -4 -13 2 -19
-8 -36 -44 -72 -26 -26 -45 -49 -42 -52 8 -9 -29 -46 -40 -40 -4 3 -7 0 -6 -8
2 -7 -2 -12 -8 -11 -7 1 -10 -5 -7 -15 3 -12 -4 -23 -21 -31 -14 -8 -23 -17
-21 -21 6 -10 -96 -115 -160 -165 -27 -21 -59 -48 -71 -59 -44 -43 -77 -68
-93 -71 -9 -1 -16 -8 -16 -16 0 -8 -10 -25 -22 -38 -33 -35 -15 -63 37 -59 21
1 37 5 34 9 -3 5 8 16 23 26 15 10 52 41 81 68 30 28 57 50 61 50 4 0 20 14
34 30 34 39 36 13 2 -31 -14 -18 -25 -37 -25 -42 0 -5 -10 -17 -22 -26 -13 -9
-17 -14 -9 -10 26 13 0 -17 -33 -38 -17 -11 -23 -18 -13 -14 9 3 17 1 17 -4 0
-6 -4 -10 -9 -10 -5 0 -14 -13 -21 -30 -7 -16 -16 -30 -21 -30 -5 0 -9 -7 -9
-15 0 -8 -5 -15 -10 -15 -6 0 -18 -16 -27 -35 -9 -19 -21 -31 -26 -28 -6 3 -7
1 -3 -5 3 -6 -1 -17 -9 -25 -8 -9 -15 -19 -15 -23 0 -4 -25 -37 -55 -75 -30
-37 -55 -73 -55 -79 0 -6 -4 -9 -8 -6 -5 3 -9 0 -9 -7 0 -13 -55 -99 -87 -136
-12 -13 -16 -21 -9 -17 6 3 18 -2 25 -11 7 -10 27 -26 43 -35 17 -10 29 -22
28 -27 -1 -5 6 -7 16 -4 10 2 24 -1 32 -9 16 -15 27 -17 131 -25 109 -8 160
18 270 138 46 49 88 87 95 85 7 -3 15 -1 18 5 4 5 2 8 -3 7 -9 -3 -12 2 -12
20 0 4 11 21 25 37 37 44 39 48 54 77 8 15 18 25 23 22 5 -3 7 -2 6 3 -3 9 42
86 47 81 2 -2 -1 -23 -5 -48 -5 -25 -9 -98 -10 -163 0 -122 11 -165 58 -224
28 -36 127 -89 192 -103 66 -14 265 -7 280 11 3 3 28 13 55 24 28 10 86 35
129 56 44 21 84 35 88 33 5 -3 7 -1 6 4 -3 9 148 116 164 117 9 0 97 79 177
157 32 31 62 54 66 50 5 -4 5 -2 2 5 -4 6 7 23 25 38 18 15 38 36 43 46 6 10
29 38 53 63 23 24 42 47 42 50 0 9 70 100 84 108 6 4 7 8 1 8 -5 0 -3 6 6 13
9 7 17 17 19 22 9 33 25 55 36 51 8 -3 11 0 8 9 -7 18 66 156 79 148 6 -3 7
-1 3 6 -4 6 1 37 12 69 37 105 53 184 60 289 4 57 5 107 2 111 -3 4 -12 30
-18 57 -7 28 -22 62 -33 78 -11 15 -17 33 -13 40 4 6 4 9 -1 5 -8 -7 -62 51
-58 63 1 4 -5 6 -15 5 -10 0 -16 5 -14 14 2 8 0 12 -4 8 -4 -4 -13 -3 -21 3
-7 6 -13 9 -13 5 0 -3 -18 1 -39 10 -31 12 -67 15 -168 11 -125 -4 -139 -6
-176 -22 -9 -4 -24 -4 -33 -1 -8 3 -12 2 -9 -3 4 -8 -25 -24 -47 -26 -4 0 -13
-6 -19 -12 -7 -7 -19 -13 -26 -13 -7 0 -29 -9 -50 -21 -20 -11 -58 -32 -84
-46 -26 -13 -53 -31 -60 -39 -6 -8 -17 -14 -24 -14 -6 0 -20 -9 -30 -20 -10
-12 -25 -18 -32 -15 -8 2 -12 1 -9 -4 8 -12 -21 -34 -33 -26 -6 3 -9 0 -6 -7
3 -7 -11 -26 -30 -41 -22 -18 -35 -23 -35 -14 0 7 6 19 13 25 6 7 13 17 13 22
1 6 3 12 4 15 1 3 3 8 5 13 8 29 19 40 33 35 12 -3 14 -2 4 4 -10 8 -10 15 1
36 8 15 18 23 22 19 5 -4 5 -2 2 4 -9 16 53 135 66 127 6 -4 7 -1 3 6 -5 7 3
29 18 51 14 22 26 45 26 51 0 6 7 8 18 4 13 -5 14 -3 5 6 -12 12 -7 42 6 34 4
-2 8 1 8 8 0 17 30 80 74 157 20 36 48 90 60 120 13 30 28 58 33 62 6 4 7 8 3
8 -5 0 -1 7 7 16 9 8 14 20 11 25 -4 5 -1 9 4 9 6 0 11 7 11 15 0 8 13 36 29
62 16 27 42 77 57 113 16 36 31 67 35 70 12 9 39 69 39 86 0 11 5 14 18 9 13
-5 14 -3 5 6 -12 12 -7 42 6 34 4 -2 8 1 8 8 0 7 13 41 30 77 57 122 77 165
78 170 7 34 18 48 33 44 13 -5 14 -4 3 4 -11 8 -8 22 19 78 18 38 34 71 34 74
7 28 40 99 45 95 4 -2 8 6 8 18 1 12 7 23 13 25 5 2 8 8 5 12 -3 5 -1 17 4 27
9 17 23 52 25 63 5 24 39 100 46 100 4 0 7 6 6 13 -3 26 37 126 48 120 6 -3 8
-3 4 2 -4 4 -2 15 5 23 9 13 9 14 0 8 -7 -4 -13 -3 -13 3 0 5 5 13 11 16 6 4
8 13 5 21 -3 7 -1 16 5 19 5 4 7 10 4 15 -3 5 -1 20 6 32 14 26 19 239 5 231
-5 -4 -6 7 -2 23 5 23 4 26 -5 14 -9 -12 -10 -11 -6 8 3 12 2 20 -3 17 -9 -6
-20 19 -20 46 0 10 -4 19 -8 19 -5 0 -21 17 -35 37 -15 21 -27 34 -27 30 0 -5
-12 6 -26 23 -15 17 -33 29 -40 26 -8 -3 -14 -2 -14 2 0 4 -27 9 -60 10 -35 2
-60 -1 -60 -7z m-375 -2830 c5 -2 20 -6 33 -7 58 -6 133 -92 152 -173 13 -57
9 -259 -6 -283 -5 -7 -9 -19 -10 -28 -6 -68 -107 -306 -124 -295 -4 3 -6 -3
-4 -12 3 -11 -20 -55 -53 -105 -87 -130 -125 -174 -249 -289 -65 -60 -177
-124 -200 -115 -8 3 -12 2 -9 -4 6 -9 -48 -42 -62 -38 -4 1 -19 -4 -32 -11
-26 -15 -151 -18 -172 -5 -14 9 -19 10 -40 13 -5 0 -7 6 -3 13 4 7 3 8 -5 4
-6 -4 -23 2 -37 13 -15 12 -24 21 -20 21 3 0 -3 9 -14 20 -35 35 -53 123 -47
234 5 109 34 249 48 240 5 -3 6 2 2 11 -3 10 0 21 8 26 8 4 14 14 15 21 2 37
18 77 27 71 6 -3 7 -1 3 5 -3 6 2 26 12 44 11 18 34 59 51 91 18 31 37 57 42
57 5 0 8 3 7 8 -3 14 37 72 50 72 7 0 11 3 9 8 -3 4 6 21 20 37 14 17 22 23
17 15 -4 -9 -3 -12 2 -7 5 5 7 9 5 10 -2 1 1 12 8 25 8 15 18 21 27 18 9 -4
12 -2 8 5 -10 16 127 141 204 187 101 60 153 86 197 99 40 12 121 14 140 4z"/>
<path d="M11373 8715 c0 -8 4 -12 9 -9 5 3 6 10 3 15 -9 13 -12 11 -12 -6z"/>
<path d="M24856 12118 c3 -5 10 -6 15 -3 13 9 11 12 -6 12 -8 0 -12 -4 -9 -9z"/>
<path d="M15266 11083 c-9 -24 5 -35 54 -42 3 -1 14 -15 24 -32 14 -24 17 -42
12 -79 -7 -56 -38 -153 -71 -225 -12 -27 -25 -60 -29 -72 -4 -13 -12 -23 -18
-23 -6 0 -9 -3 -5 -6 9 -9 -32 -86 -42 -79 -5 3 -7 -3 -5 -12 3 -10 -12 -45
-32 -78 -20 -33 -59 -103 -86 -155 -57 -108 -70 -127 -81 -128 -5 0 -12 -4
-15 -8 -4 -4 -1 -4 6 0 18 11 15 1 -16 -49 -16 -25 -32 -42 -37 -38 -4 5 -5 3
-2 -4 4 -6 -23 -60 -59 -119 -87 -142 -135 -218 -143 -224 -3 -3 -15 -22 -25
-42 -10 -21 -23 -35 -29 -31 -6 3 -7 2 -4 -4 8 -13 -27 -65 -38 -56 -4 5 -5 3
-1 -4 8 -14 -22 -65 -34 -58 -5 3 -12 0 -16 -6 -4 -8 -3 -9 4 -5 20 12 13 -9
-10 -34 -13 -14 -23 -27 -23 -30 0 -18 -49 -79 -58 -73 -7 3 -9 3 -5 -2 9 -10
-10 -47 -21 -40 -5 2 -8 -3 -7 -13 0 -9 -5 -16 -12 -14 -6 1 -11 -1 -11 -5 3
-19 -3 -30 -28 -61 -16 -17 -50 -61 -77 -96 -42 -55 -52 -63 -65 -53 -14 10
-14 10 -4 -4 10 -13 1 -26 -60 -85 -91 -89 -197 -179 -219 -187 -10 -4 -18
-11 -18 -16 0 -14 -175 -131 -194 -131 -8 0 -19 -6 -23 -14 -18 -31 -245 -137
-386 -180 -66 -21 -84 -16 -33 8 19 9 36 20 38 24 4 9 85 72 92 72 6 0 216
210 216 216 0 3 23 33 50 67 64 78 59 71 100 150 19 37 38 67 42 67 4 0 5 7 2
15 -4 8 -1 15 7 15 7 0 10 3 6 6 -3 3 4 31 15 62 17 46 21 85 23 194 2 126 1
141 -21 185 -13 26 -24 53 -24 60 0 6 -17 28 -37 49 -21 20 -37 41 -35 46 1 5
-2 7 -8 3 -5 -3 -22 3 -38 13 -34 25 -89 49 -167 73 -73 23 -257 26 -355 5
-36 -8 -68 -12 -72 -9 -5 2 -8 0 -8 -6 0 -9 -74 -29 -76 -20 0 2 -9 -2 -18
-10 -29 -24 -119 -62 -133 -56 -8 2 -12 1 -9 -4 3 -4 -8 -18 -25 -30 -25 -19
-33 -20 -47 -10 -14 11 -15 11 -5 -1 10 -11 5 -19 -25 -41 -20 -16 -41 -29
-46 -29 -5 0 -15 -8 -22 -17 -7 -10 -16 -18 -21 -18 -5 0 -26 -19 -47 -42 -21
-23 -41 -42 -44 -40 -4 1 -52 -43 -108 -98 -294 -291 -364 -356 -375 -349 -7
4 -9 3 -6 -4 7 -10 -46 -62 -64 -62 -6 0 -8 -4 -4 -9 3 -5 -4 -13 -16 -16 -11
-4 -18 -9 -16 -12 3 -2 -5 -20 -18 -39 -27 -40 -23 -74 10 -74 20 0 36 10 85
52 57 51 57 51 21 -56 -33 -97 -34 -107 -35 -256 -1 -151 0 -157 27 -209 50
-97 118 -143 238 -162 90 -14 202 -6 316 22 48 12 95 23 103 24 8 1 37 11 64
23 26 12 52 20 56 17 4 -3 13 2 20 10 7 8 16 15 21 15 5 0 28 9 52 20 23 10
49 20 57 22 8 2 21 9 28 16 7 6 34 12 60 12 26 0 88 7 137 17 50 9 98 16 108
17 9 0 17 3 17 7 0 3 21 12 47 20 26 7 69 23 95 36 26 13 54 23 61 23 7 0 17
4 23 8 22 20 125 72 118 60 -4 -7 6 -1 22 13 38 33 84 62 84 52 0 -5 4 -3 8 3
4 6 41 35 82 64 41 30 107 79 145 110 39 31 76 60 84 65 18 11 -267 -408 -327
-481 -9 -12 -25 -35 -34 -51 -17 -29 -17 -31 0 -46 9 -8 45 -31 79 -50 58 -33
66 -35 150 -33 79 1 91 4 124 28 20 16 39 25 43 20 4 -4 6 -2 4 3 -1 6 17 33
42 60 68 74 74 81 85 97 52 79 89 128 97 128 5 0 7 4 4 9 -3 5 1 15 10 22 9 7
20 22 25 34 8 17 9 16 4 -5 -3 -14 -9 -79 -12 -145 -5 -109 -4 -124 15 -161
26 -51 81 -100 141 -126 64 -28 189 -35 265 -15 33 9 63 14 67 11 4 -2 9 -1
11 4 3 9 128 63 142 61 5 0 12 4 15 9 9 14 91 63 91 55 0 -5 4 -3 8 3 7 11
140 114 147 114 2 0 22 18 44 41 22 23 45 38 51 34 6 -3 9 -2 8 2 -5 14 61 85
72 78 5 -3 7 0 4 8 -3 8 7 25 23 39 15 13 33 31 38 40 21 33 130 173 137 176
4 2 8 10 8 18 0 9 5 12 12 8 7 -4 8 -3 4 4 -4 6 5 30 19 52 14 22 40 74 59
115 18 41 36 72 40 68 4 -4 4 0 1 8 -3 9 0 29 6 45 16 39 17 50 26 186 5 65 4
119 0 121 -5 1 -9 21 -10 44 -1 22 -5 39 -8 37 -11 -7 -40 46 -33 59 4 7 3 9
-1 4 -9 -8 -77 52 -70 62 2 4 -4 7 -13 8 -9 0 -46 8 -82 18 -95 26 -190 17
-313 -30 -54 -20 -122 -50 -150 -67 -29 -17 -53 -30 -55 -29 -1 1 -8 -3 -15
-9 -6 -6 -34 -26 -60 -46 -42 -31 -50 -34 -65 -22 -15 11 -15 11 -5 -3 11 -13
8 -20 -12 -39 -14 -13 -25 -19 -25 -14 0 5 -16 -9 -36 -31 -20 -22 -29 -29
-20 -15 9 14 23 41 31 60 9 19 19 37 23 40 4 3 22 35 41 72 19 39 38 65 44 61
6 -3 7 -1 3 5 -8 13 50 131 73 149 9 7 13 13 8 13 -10 0 18 53 37 69 9 7 14
17 11 21 -5 8 131 310 144 320 3 3 7 12 9 20 2 12 40 111 82 215 4 11 16 49
26 85 9 36 19 69 22 74 2 4 6 31 8 59 3 28 8 55 12 59 4 4 4 48 1 96 -8 91
-43 189 -86 238 -29 34 -95 68 -125 66 -15 -1 -28 2 -28 8 0 16 -17 12 -24 -7z
m-1725 -1529 c60 -18 96 -41 150 -93 98 -97 100 -209 8 -398 -27 -57 -53 -103
-59 -103 -10 0 -25 40 -21 55 1 5 -1 7 -5 3 -4 -4 -21 3 -38 15 -26 19 -45 22
-125 24 -69 1 -101 -3 -117 -14 -13 -8 -28 -12 -34 -8 -5 3 -10 2 -10 -3 0 -6
-12 -15 -27 -21 -16 -7 -39 -18 -52 -26 -24 -13 -181 -162 -181 -171 0 -2 -16
-28 -35 -57 -44 -67 -75 -157 -75 -220 0 -42 4 -53 31 -78 17 -16 39 -29 48
-29 9 -1 -1 -10 -23 -20 -21 -11 -42 -17 -46 -15 -5 3 -10 0 -12 -6 -5 -14
-113 -49 -175 -56 -80 -9 -185 21 -231 66 -46 44 -67 109 -58 178 10 69 30
153 36 153 3 0 7 10 7 22 1 13 7 24 13 26 5 2 8 7 5 12 -8 13 34 102 45 95 6
-3 7 1 4 10 -7 16 44 107 100 180 38 50 58 66 73 60 7 -2 15 1 19 7 4 6 3 8
-4 4 -6 -3 -13 -2 -17 4 -7 11 142 167 156 162 5 -1 8 2 7 7 -4 13 141 120
200 147 29 14 57 22 63 19 5 -4 8 -1 7 6 -4 16 92 47 197 64 107 17 113 17
176 -1z m1814 -195 c48 -13 119 -84 112 -111 -3 -10 -1 -16 3 -13 15 10 23
-63 17 -168 -3 -74 -12 -124 -32 -182 -31 -94 -111 -261 -137 -287 -10 -10
-17 -19 -16 -20 5 -6 -64 -98 -73 -98 -6 0 -8 -4 -5 -9 8 -12 -173 -183 -185
-176 -5 4 -9 2 -9 -3 0 -15 -89 -64 -102 -56 -6 4 -8 3 -5 -3 3 -5 -23 -20
-59 -32 -132 -47 -252 -12 -297 87 -31 67 -30 224 2 340 13 45 27 82 33 82 5
0 7 4 3 10 -6 10 60 147 103 214 92 141 240 305 264 290 6 -4 8 -3 5 3 -10 15
102 86 193 124 52 21 127 24 185 8z"/>
<path d="M9437 10968 c-1 -3 -81 -8 -177 -11 -96 -3 -197 -8 -225 -11 -49 -5
-212 -17 -267 -19 -16 0 -28 -4 -28 -7 0 -4 -12 -20 -27 -35 -16 -16 -22 -25
-16 -21 9 5 11 2 7 -8 -3 -9 -10 -16 -15 -16 -5 0 -9 -9 -9 -21 0 -13 -4 -18
-12 -13 -10 5 -10 4 -1 -6 9 -10 9 -18 1 -34 -7 -12 -12 -66 -13 -121 -1 -56
-5 -107 -10 -114 -5 -10 -4 -12 4 -7 6 4 14 1 16 -6 5 -13 33 -15 80 -5 26 6
88 15 150 23 28 3 55 9 60 14 6 4 33 10 60 13 83 11 118 16 173 28 29 6 60 8
67 5 8 -3 17 -1 20 4 5 7 24 12 110 25 6 1 12 3 15 4 7 3 37 9 80 16 19 2 77
12 129 20 52 8 97 13 99 10 3 -3 11 0 18 6 12 10 55 17 138 23 23 2 48 6 56 9
8 3 47 9 85 12 39 3 120 9 180 15 61 5 188 13 282 18 99 5 179 14 186 21 8 6
17 8 21 4 4 -4 4 1 0 11 -5 14 -4 17 5 11 10 -6 11 -3 2 14 -7 11 -9 21 -6 21
8 0 -24 60 -33 61 -4 0 -16 2 -27 5 -120 25 -272 41 -505 53 -220 12 -669 18
-673 9z"/>
<path d="M21015 10566 c-33 -8 -63 -12 -67 -9 -5 2 -8 0 -8 -6 0 -5 -15 -13
-32 -17 -18 -4 -35 -8 -38 -9 -3 -1 -18 -7 -35 -15 -142 -64 -191 -87 -262
-126 -46 -25 -86 -45 -90 -45 -5 0 -15 -6 -23 -14 -19 -17 -229 -155 -236
-155 -3 0 -14 -9 -26 -20 -12 -11 -40 -32 -62 -47 -50 -34 -95 -68 -117 -89
-38 -35 -83 -63 -93 -57 -6 3 -8 3 -4 -2 9 -9 13 -5 -167 -159 -167 -144 -604
-578 -736 -733 l-86 -100 -89 38 c-49 21 -95 39 -101 39 -7 0 -13 4 -13 8 0 4
-8 8 -17 8 -10 1 -66 12 -125 25 l-106 24 -5 37 c-7 56 -50 141 -96 191 -33
35 -38 46 -28 57 10 12 9 12 -3 3 -12 -9 -27 -4 -70 23 -30 19 -62 34 -72 34
-10 0 -18 4 -18 9 0 5 -9 7 -20 4 -16 -4 -20 0 -20 19 0 43 -59 145 -110 191
-69 62 -111 80 -189 79 -68 0 -181 -34 -181 -54 0 -5 -6 -8 -13 -5 -7 3 -14
-3 -15 -12 -9 -74 -9 -76 19 -97 16 -11 26 -23 23 -26 -3 -3 37 -5 88 -3 62 1
107 8 136 19 34 15 45 16 58 6 21 -18 50 -61 58 -86 6 -19 2 -23 -41 -30 -26
-4 -52 -8 -58 -9 -5 0 -12 -3 -15 -6 -3 -3 -29 -19 -58 -34 -65 -35 -132 -107
-166 -178 -21 -43 -47 -148 -48 -192 0 -23 22 -116 36 -149 l14 -35 -41 -34
c-23 -20 -71 -63 -107 -96 -36 -33 -71 -59 -78 -56 -7 3 -11 1 -7 -4 10 -17
-69 -70 -96 -65 -19 3 -20 3 -6 -4 17 -7 14 -11 -21 -36 -24 -16 -46 -25 -53
-20 -7 4 -10 3 -5 -4 7 -11 -84 -68 -119 -74 -11 -1 -23 -7 -26 -11 -5 -8
-159 -59 -159 -53 0 1 20 17 45 35 25 18 45 30 45 27 0 -3 48 41 106 97 59 56
111 101 115 100 5 -2 8 1 6 6 -3 11 64 101 75 101 4 0 8 6 8 13 0 7 9 23 20
35 11 12 20 26 20 32 0 6 5 8 12 4 6 -4 8 -3 5 3 -4 6 4 32 17 59 55 116 68
177 64 302 -3 107 -6 122 -33 170 -36 67 -82 108 -160 142 -103 46 -145 53
-278 48 -100 -5 -139 -11 -217 -37 -174 -56 -296 -141 -536 -371 -338 -325
-381 -363 -394 -355 -5 3 -7 0 -5 -7 3 -8 -3 -23 -13 -33 -19 -21 -16 -65 4
-72 10 -3 47 21 119 78 6 4 -4 -35 -21 -87 -26 -81 -31 -113 -33 -209 -3 -139
15 -192 88 -255 71 -64 57 -59 196 -67 113 -7 207 8 337 51 56 19 107 32 113
29 5 -4 7 -3 3 2 -4 4 24 23 63 41 57 28 83 34 133 34 35 0 88 5 117 11 30 7
64 12 76 13 11 0 19 4 16 9 -2 4 2 7 11 7 8 0 63 24 123 54 87 44 111 52 123
43 13 -10 13 -10 3 4 -11 13 -2 23 59 65 40 27 80 56 90 64 40 35 49 41 60 34
6 -4 8 -3 5 3 -6 10 16 32 114 116 41 35 54 25 68 -57 36 -207 -14 -444 -154
-721 -62 -125 -84 -160 -99 -158 -12 1 -15 -2 -8 -9 7 -7 -1 -27 -25 -64 -20
-30 -40 -54 -45 -54 -5 0 -7 -4 -4 -8 13 -22 -246 -277 -271 -267 -7 2 -12 -1
-10 -7 2 -14 -152 -110 -164 -102 -5 3 -9 1 -9 -4 0 -22 -283 -122 -356 -125
-18 -1 -30 -4 -29 -7 5 -8 -179 -38 -315 -51 -143 -14 -775 -14 -1113 1 -508
21 -1247 68 -2688 170 -646 46 -990 69 -1099 75 -63 4 -121 9 -129 11 -8 3
-53 6 -100 8 -177 6 -717 39 -731 44 -8 2 -28 4 -45 3 -16 -1 -169 5 -340 13
-800 40 -1676 59 -2294 49 -300 -5 -412 -3 -407 5 4 6 -5 5 -21 -3 -26 -12
-391 -29 -638 -30 -44 0 -82 -3 -85 -7 -3 -3 -68 -9 -145 -12 -77 -3 -194 -11
-260 -17 -66 -6 -155 -12 -198 -14 -42 -2 -81 -6 -85 -8 -4 -2 -26 -5 -48 -5
-23 -1 -74 -6 -114 -12 -39 -6 -76 -7 -81 -4 -6 3 -15 1 -22 -4 -7 -5 -37 -12
-67 -16 -76 -9 -93 -12 -111 -20 -9 -4 -27 -8 -40 -10 -13 -1 -32 -6 -42 -9
-40 -16 -50 -17 -66 -5 -9 7 -13 8 -9 4 9 -11 -40 -38 -53 -30 -5 3 -9 0 -9
-5 0 -6 -18 -14 -40 -17 -22 -4 -43 -11 -46 -16 -3 -5 -13 -3 -22 4 -10 7 -14
8 -10 4 8 -10 -14 -23 -72 -45 -37 -14 -135 -58 -160 -72 -8 -5 -28 -15 -45
-23 -16 -7 -59 -32 -95 -55 -77 -49 -108 -63 -121 -56 -5 4 -6 0 -4 -7 3 -8
-9 -21 -29 -32 -19 -10 -43 -26 -53 -35 -10 -9 -40 -35 -66 -59 -26 -24 -52
-40 -57 -37 -6 4 -9 1 -8 -7 2 -7 -4 -12 -12 -10 -8 2 -12 0 -7 -4 9 -10 -43
-65 -55 -58 -5 3 -7 0 -6 -8 2 -7 -3 -12 -9 -11 -7 2 -12 0 -12 -5 3 -19 -2
-33 -11 -27 -5 3 -10 -1 -10 -9 0 -8 -15 -30 -33 -48 -18 -19 -36 -40 -40 -48
-31 -62 -66 -115 -75 -113 -7 2 -11 0 -10 -5 2 -4 -6 -27 -16 -52 -11 -25 -20
-47 -21 -50 -7 -29 -18 -50 -27 -50 -5 0 -8 -7 -5 -15 4 -8 2 -17 -2 -19 -5
-3 -9 -41 -10 -84 -2 -67 1 -81 18 -96 11 -10 18 -23 15 -27 -9 -15 162 -10
223 7 32 9 65 16 73 17 8 1 21 8 28 15 7 6 22 12 32 12 10 0 22 5 25 10 3 6
16 10 28 10 12 0 43 11 69 25 33 18 48 21 51 12 4 -8 6 -6 6 4 1 15 128 72
161 72 8 0 18 4 21 9 3 5 17 10 30 12 14 1 29 5 34 8 6 3 28 9 50 13 22 4 45
12 52 17 6 5 30 10 51 11 22 1 38 5 35 10 -4 6 12 11 30 8 4 -1 17 4 28 9 11
6 32 13 47 15 15 2 53 11 84 20 31 8 61 15 65 14 4 -1 15 0 23 4 43 16 416 80
448 76 10 -1 24 1 32 4 14 5 139 20 260 31 30 3 105 10 165 15 318 29 1157 71
1805 91 190 6 716 15 1170 20 454 5 989 15 1190 22 201 6 709 12 1130 12 727
0 1002 -5 2080 -39 256 -8 695 -21 975 -29 281 -9 668 -21 860 -27 535 -18
815 -6 1035 47 181 43 389 132 535 230 39 25 76 47 83 47 6 0 10 2 8 5 -3 2
28 30 67 62 40 32 110 97 156 144 47 47 89 82 94 79 6 -3 7 -1 3 5 -6 10 27
57 105 150 10 12 19 24 19 27 0 3 21 38 48 78 26 40 71 124 101 187 30 63 61
122 68 131 7 9 11 18 9 20 -3 2 6 36 18 74 16 47 28 69 37 67 11 -3 11 -1 2 8
-7 8 -8 22 -2 44 39 133 52 238 56 453 l5 221 45 -19 c25 -10 53 -19 64 -19
10 0 19 -4 19 -9 0 -4 10 -7 23 -5 12 2 56 5 97 8 l75 4 20 -41 c10 -23 34
-58 53 -79 21 -22 31 -41 27 -49 -5 -8 -4 -10 3 -5 10 6 41 -16 94 -66 10 -10
18 -15 18 -12 0 4 6 2 13 -4 17 -14 248 -129 275 -137 12 -3 22 -11 22 -16 0
-5 3 -8 8 -7 13 4 212 -75 212 -84 0 -5 4 -7 9 -4 17 11 171 -49 171 -66 0 -5
5 -8 10 -8 15 0 111 -66 105 -72 -3 -2 1 -5 8 -5 8 0 35 -15 62 -34 26 -19 62
-42 79 -52 17 -10 36 -24 41 -31 6 -7 18 -15 28 -19 10 -4 15 -12 11 -18 -4
-7 -1 -10 7 -7 19 6 151 -91 143 -104 -4 -7 -2 -8 5 -4 13 8 94 -51 86 -64 -3
-4 3 -7 13 -6 9 0 16 -5 14 -12 -1 -8 1 -11 6 -8 21 13 539 -435 526 -455 -3
-5 1 -6 8 -4 13 5 183 -162 311 -305 32 -36 72 -79 89 -96 20 -21 29 -38 25
-48 -4 -10 -3 -15 3 -11 6 4 51 -36 100 -88 110 -115 161 -142 253 -134 62 6
119 36 163 86 20 23 88 137 89 151 0 3 7 32 14 66 8 36 12 101 9 161 -3 94 -5
104 -47 189 -24 49 -50 93 -57 97 -8 4 -14 12 -14 17 0 5 -42 51 -92 102 -51
51 -92 97 -90 101 1 5 -2 6 -7 3 -5 -3 -33 13 -63 37 -29 24 -80 63 -113 87
-33 24 -61 47 -63 52 -2 4 -9 8 -16 8 -7 0 -23 11 -36 25 -13 14 -26 23 -28
20 -5 -5 -63 33 -73 48 -3 5 -9 8 -13 7 -14 -2 -65 34 -59 43 3 6 1 7 -4 4
-10 -7 -164 80 -171 96 -2 4 -10 7 -18 7 -9 0 -12 5 -8 12 4 6 3 8 -4 4 -5 -3
-50 17 -99 45 -86 51 -113 65 -283 157 -47 25 -87 48 -90 52 -3 3 -114 59
-247 125 -133 66 -244 126 -247 134 -4 8 -1 18 6 23 10 6 9 8 -3 8 -9 0 -22
19 -32 48 -10 27 -36 80 -58 117 -31 53 -37 70 -27 78 10 7 9 8 -2 4 -22 -7
-42 17 -27 33 9 10 9 11 -1 5 -16 -8 -84 63 -75 78 3 6 1 7 -4 4 -6 -4 -19 3
-29 14 -10 11 -14 19 -9 18 6 -1 17 0 25 4 41 15 933 102 981 95 16 -3 29 -1
29 2 0 4 35 10 77 14 42 3 117 13 166 22 73 12 92 13 105 2 15 -11 15 -11 4 4
-11 14 -8 17 30 23 52 9 304 88 373 118 91 39 250 123 312 165 47 32 63 38 72
29 10 -9 11 -8 5 7 -6 16 -4 18 10 13 9 -4 15 -3 12 2 -3 5 43 57 103 117 93
94 114 122 154 202 25 51 49 108 53 127 3 19 9 33 13 31 15 -9 12 210 -3 277
-9 38 -14 73 -10 78 3 5 1 9 -4 9 -9 0 -25 40 -26 65 -1 6 -4 12 -7 15 -3 3
-15 25 -26 50 -21 45 -123 192 -123 176 0 -5 -8 -2 -17 6 -24 21 -99 58 -118
58 -8 0 -15 4 -15 8 0 13 -212 12 -275 -2z m-3786 -1220 c18 -10 54 -38 81
-64 87 -85 92 -183 15 -339 -25 -51 -49 -93 -54 -93 -4 0 -13 11 -19 25 -19
42 -65 58 -157 53 -93 -5 -161 -32 -233 -93 -24 -21 -47 -33 -53 -29 -8 4 -9
3 -5 -4 5 -9 -48 -81 -76 -102 -17 -13 -71 -146 -76 -185 -6 -62 4 -93 38
-114 l30 -18 -68 -31 c-140 -65 -258 -64 -346 2 -46 36 -54 56 -55 143 -2 99
84 333 146 398 11 11 19 23 19 26 -2 15 80 108 91 104 7 -2 10 2 7 9 -6 16 63
79 78 70 7 -5 8 -3 3 5 -4 7 3 23 16 38 35 37 160 124 170 117 5 -3 9 -1 9 5
0 14 58 43 70 36 6 -3 10 -2 10 4 0 23 180 62 265 57 34 -2 76 -11 94 -20z"/>
<path d="M10800 10226 c0 -2 8 -10 18 -17 15 -13 16 -12 3 4 -13 16 -21 21
-21 13z"/>
<path d="M19830 9890 c-9 -6 -10 -10 -3 -10 6 0 15 5 18 10 8 12 4 12 -15 0z"/>
<path d="M11255 9800 c-3 -6 1 -7 9 -4 18 7 21 14 7 14 -6 0 -13 -4 -16 -10z"/>
<path d="M26936 9638 c3 -5 10 -6 15 -3 13 9 11 12 -6 12 -8 0 -12 -4 -9 -9z"/>
<path d="M8530 9466 c0 -2 8 -10 18 -17 15 -13 16 -12 3 4 -13 16 -21 21 -21
13z"/>
<path d="M15810 8826 c0 -2 8 -10 18 -17 15 -13 16 -12 3 4 -13 16 -21 21 -21
13z"/>
</g>
</svg>
